<svg xmlns="http://www.w3.org/2000/svg" xmlns:xlink="http://www.w3.org/1999/xlink" width="1024" zoomAndPan="magnify" viewBox="0 0 768 767.999994" height="1024" preserveAspectRatio="xMidYMid meet" version="1.0"><path fill="#ba5a66" d="M 42.03125 116.535156 C 40.765625 116.519531 39.507812 116.5625 38.25 116.671875 C 36.992188 116.777344 35.742188 116.945312 34.5 117.179688 C 33.257812 117.410156 32.03125 117.699219 30.816406 118.054688 C 29.605469 118.40625 28.414062 118.816406 27.242188 119.289062 C 26.070312 119.761719 24.925781 120.289062 23.804688 120.871094 C 22.683594 121.457031 21.597656 122.097656 20.542969 122.789062 C 19.484375 123.480469 18.464844 124.222656 17.484375 125.015625 C 16.5 125.8125 15.558594 126.652344 14.660156 127.539062 C 13.761719 128.425781 12.910156 129.355469 12.101562 130.324219 C 11.292969 131.296875 10.539062 132.304688 9.828125 133.351562 C 9.121094 134.398438 8.46875 135.476562 7.867188 136.589844 C 7.269531 137.699219 6.726562 138.839844 6.238281 140.003906 C 5.75 141.167969 5.320312 142.355469 4.953125 143.5625 C 4.582031 144.769531 4.273438 145.996094 4.023438 147.234375 C 3.777344 148.472656 3.589844 149.71875 3.464844 150.976562 C 3.339844 152.234375 3.277344 153.492188 3.277344 154.757812 C 3.277344 156.019531 3.339844 157.28125 3.464844 158.535156 C 3.589844 159.792969 3.777344 161.042969 4.023438 162.28125 C 4.273438 163.519531 4.582031 164.742188 4.953125 165.949219 C 5.320312 167.15625 5.75 168.34375 6.238281 169.507812 C 6.726562 170.675781 7.269531 171.8125 7.867188 172.921875 C 8.46875 174.035156 9.121094 175.113281 9.828125 176.160156 C 10.539062 177.207031 11.292969 178.214844 12.101562 179.1875 C 12.910156 180.160156 13.761719 181.089844 14.660156 181.976562 C 15.558594 182.863281 16.5 183.703125 17.484375 184.496094 C 18.464844 185.289062 19.484375 186.03125 20.542969 186.722656 C 21.597656 187.417969 22.683594 188.054688 23.804688 188.640625 C 24.925781 189.222656 26.070312 189.753906 27.242188 190.222656 C 28.414062 190.695312 29.605469 191.105469 30.816406 191.460938 C 32.03125 191.8125 33.257812 192.105469 34.5 192.335938 C 35.742188 192.566406 36.992188 192.734375 38.25 192.84375 C 39.507812 192.949219 40.765625 192.992188 42.03125 192.976562 L 729.789062 192.976562 C 731.054688 192.992188 732.3125 192.949219 733.574219 192.84375 C 734.832031 192.734375 736.082031 192.566406 737.320312 192.335938 C 738.5625 192.105469 739.789062 191.8125 741.003906 191.460938 C 742.214844 191.105469 743.40625 190.695312 744.578125 190.222656 C 745.75 189.753906 746.898438 189.222656 748.015625 188.640625 C 749.136719 188.054688 750.222656 187.417969 751.28125 186.722656 C 752.335938 186.03125 753.355469 185.289062 754.335938 184.496094 C 755.320312 183.703125 756.261719 182.863281 757.160156 181.976562 C 758.058594 181.089844 758.914062 180.160156 759.71875 179.1875 C 760.527344 178.214844 761.285156 177.207031 761.992188 176.160156 C 762.699219 175.113281 763.351562 174.035156 763.953125 172.921875 C 764.550781 171.8125 765.097656 170.671875 765.582031 169.507812 C 766.070312 168.34375 766.5 167.15625 766.867188 165.949219 C 767.238281 164.742188 767.546875 163.519531 767.796875 162.28125 C 768.046875 161.042969 768.230469 159.792969 768.355469 158.535156 C 768.480469 157.28125 768.542969 156.019531 768.542969 154.757812 C 768.542969 153.492188 768.480469 152.234375 768.355469 150.976562 C 768.230469 149.71875 768.046875 148.472656 767.796875 147.234375 C 767.546875 145.996094 767.238281 144.769531 766.867188 143.5625 C 766.5 142.355469 766.070312 141.167969 765.582031 140.003906 C 765.097656 138.839844 764.550781 137.699219 763.953125 136.589844 C 763.351562 135.476562 762.699219 134.398438 761.992188 133.351562 C 761.285156 132.304688 760.527344 131.296875 759.71875 130.324219 C 758.914062 129.355469 758.058594 128.425781 757.160156 127.539062 C 756.261719 126.652344 755.320312 125.8125 754.335938 125.015625 C 753.355469 124.222656 752.335938 123.480469 751.28125 122.789062 C 750.222656 122.097656 749.136719 121.457031 748.015625 120.871094 C 746.898438 120.289062 745.75 119.761719 744.578125 119.289062 C 743.40625 118.816406 742.214844 118.40625 741.003906 118.054688 C 739.789062 117.699219 738.5625 117.410156 737.320312 117.179688 C 736.082031 116.945312 734.832031 116.777344 733.574219 116.671875 C 732.3125 116.5625 731.054688 116.519531 729.789062 116.535156 Z M 42.03125 345.855469 C 40.765625 345.835938 39.507812 345.882812 38.25 345.988281 C 36.992188 346.097656 35.742188 346.265625 34.5 346.496094 C 33.257812 346.726562 32.03125 347.019531 30.816406 347.371094 C 29.605469 347.726562 28.414062 348.136719 27.242188 348.609375 C 26.070312 349.078125 24.925781 349.605469 23.804688 350.191406 C 22.6875 350.777344 21.597656 351.414062 20.542969 352.105469 C 19.484375 352.800781 18.464844 353.542969 17.484375 354.335938 C 16.5 355.128906 15.558594 355.96875 14.660156 356.855469 C 13.761719 357.742188 12.910156 358.671875 12.101562 359.644531 C 11.292969 360.617188 10.539062 361.625 9.832031 362.671875 C 9.125 363.71875 8.46875 364.796875 7.871094 365.90625 C 7.269531 367.019531 6.726562 368.15625 6.238281 369.324219 C 5.75 370.488281 5.324219 371.675781 4.953125 372.882812 C 4.582031 374.089844 4.273438 375.3125 4.023438 376.550781 C 3.777344 377.789062 3.589844 379.039062 3.464844 380.292969 C 3.339844 381.550781 3.277344 382.8125 3.277344 384.074219 C 3.277344 385.339844 3.339844 386.597656 3.464844 387.855469 C 3.589844 389.113281 3.777344 390.359375 4.023438 391.597656 C 4.273438 392.835938 4.582031 394.058594 4.953125 395.265625 C 5.324219 396.476562 5.75 397.660156 6.238281 398.828125 C 6.726562 399.992188 7.269531 401.128906 7.871094 402.242188 C 8.46875 403.351562 9.125 404.433594 9.832031 405.480469 C 10.539062 406.523438 11.292969 407.535156 12.101562 408.503906 C 12.910156 409.476562 13.761719 410.40625 14.660156 411.292969 C 15.558594 412.179688 16.5 413.019531 17.484375 413.8125 C 18.464844 414.605469 19.484375 415.351562 20.542969 416.042969 C 21.597656 416.734375 22.6875 417.375 23.804688 417.957031 C 24.925781 418.542969 26.070312 419.070312 27.242188 419.542969 C 28.414062 420.011719 29.605469 420.425781 30.816406 420.777344 C 32.03125 421.128906 33.257812 421.421875 34.5 421.652344 C 35.742188 421.882812 36.992188 422.054688 38.25 422.160156 C 39.507812 422.269531 40.765625 422.3125 42.03125 422.292969 L 729.789062 422.292969 C 731.054688 422.3125 732.3125 422.269531 733.574219 422.160156 C 734.832031 422.054688 736.082031 421.882812 737.320312 421.652344 C 738.5625 421.421875 739.789062 421.128906 741.003906 420.777344 C 742.214844 420.425781 743.40625 420.011719 744.578125 419.542969 C 745.75 419.070312 746.894531 418.542969 748.015625 417.957031 C 749.136719 417.375 750.222656 416.734375 751.277344 416.042969 C 752.335938 415.351562 753.355469 414.605469 754.335938 413.8125 C 755.320312 413.019531 756.261719 412.179688 757.160156 411.292969 C 758.058594 410.40625 758.910156 409.476562 759.71875 408.503906 C 760.527344 407.535156 761.28125 406.523438 761.992188 405.480469 C 762.699219 404.433594 763.351562 403.351562 763.953125 402.242188 C 764.550781 401.128906 765.09375 399.992188 765.582031 398.828125 C 766.070312 397.660156 766.5 396.476562 766.867188 395.265625 C 767.238281 394.058594 767.546875 392.835938 767.796875 391.597656 C 768.042969 390.359375 768.230469 389.113281 768.355469 387.855469 C 768.480469 386.597656 768.542969 385.339844 768.542969 384.074219 C 768.542969 382.8125 768.480469 381.550781 768.355469 380.292969 C 768.230469 379.039062 768.042969 377.789062 767.796875 376.550781 C 767.546875 375.3125 767.238281 374.089844 766.867188 372.882812 C 766.5 371.675781 766.070312 370.488281 765.582031 369.324219 C 765.09375 368.15625 764.550781 367.019531 763.953125 365.90625 C 763.351562 364.796875 762.699219 363.71875 761.992188 362.671875 C 761.28125 361.625 760.527344 360.617188 759.71875 359.644531 C 758.910156 358.671875 758.058594 357.742188 757.160156 356.855469 C 756.261719 355.96875 755.320312 355.128906 754.335938 354.335938 C 753.355469 353.542969 752.335938 352.800781 751.277344 352.105469 C 750.222656 351.414062 749.136719 350.777344 748.015625 350.191406 C 746.894531 349.605469 745.75 349.078125 744.578125 348.609375 C 743.40625 348.136719 742.214844 347.726562 741.003906 347.371094 C 739.789062 347.019531 738.5625 346.726562 737.320312 346.496094 C 736.082031 346.265625 734.832031 346.097656 733.574219 345.988281 C 732.3125 345.882812 731.054688 345.835938 729.789062 345.855469 Z M 42.03125 575.175781 C 40.765625 575.15625 39.507812 575.199219 38.25 575.308594 C 36.988281 575.414062 35.742188 575.582031 34.5 575.816406 C 33.257812 576.046875 32.03125 576.339844 30.816406 576.691406 C 29.605469 577.042969 28.414062 577.457031 27.242188 577.925781 C 26.070312 578.398438 24.925781 578.925781 23.804688 579.507812 C 22.683594 580.09375 21.597656 580.734375 20.542969 581.425781 C 19.484375 582.117188 18.464844 582.859375 17.484375 583.65625 C 16.5 584.449219 15.558594 585.289062 14.660156 586.175781 C 13.761719 587.0625 12.90625 587.992188 12.101562 588.960938 C 11.292969 589.933594 10.535156 590.941406 9.828125 591.988281 C 9.121094 593.035156 8.46875 594.113281 7.867188 595.226562 C 7.269531 596.335938 6.722656 597.476562 6.238281 598.640625 C 5.75 599.808594 5.320312 600.992188 4.953125 602.199219 C 4.582031 603.410156 4.273438 604.632812 4.023438 605.871094 C 3.773438 607.109375 3.589844 608.355469 3.464844 609.613281 C 3.339844 610.871094 3.277344 612.128906 3.277344 613.394531 C 3.277344 614.65625 3.339844 615.917969 3.464844 617.175781 C 3.589844 618.429688 3.773438 619.679688 4.023438 620.917969 C 4.273438 622.15625 4.582031 623.378906 4.953125 624.585938 C 5.320312 625.792969 5.75 626.980469 6.238281 628.144531 C 6.722656 629.3125 7.269531 630.449219 7.867188 631.5625 C 8.46875 632.671875 9.121094 633.75 9.828125 634.796875 C 10.535156 635.84375 11.292969 636.851562 12.101562 637.824219 C 12.90625 638.796875 13.761719 639.726562 14.660156 640.613281 C 15.558594 641.5 16.5 642.339844 17.484375 643.132812 C 18.464844 643.925781 19.484375 644.667969 20.542969 645.363281 C 21.597656 646.054688 22.683594 646.691406 23.804688 647.277344 C 24.925781 647.863281 26.070312 648.390625 27.242188 648.859375 C 28.414062 649.332031 29.605469 649.742188 30.816406 650.097656 C 32.03125 650.449219 33.257812 650.742188 34.5 650.972656 C 35.742188 651.203125 36.988281 651.371094 38.25 651.480469 C 39.507812 651.585938 40.765625 651.632812 42.03125 651.613281 L 729.789062 651.613281 C 731.054688 651.632812 732.3125 651.585938 733.574219 651.480469 C 734.832031 651.371094 736.082031 651.203125 737.320312 650.972656 C 738.5625 650.742188 739.789062 650.449219 741.003906 650.097656 C 742.214844 649.742188 743.40625 649.332031 744.578125 648.859375 C 745.75 648.390625 746.898438 647.863281 748.015625 647.277344 C 749.136719 646.691406 750.222656 646.054688 751.28125 645.363281 C 752.335938 644.667969 753.355469 643.925781 754.335938 643.132812 C 755.320312 642.339844 756.261719 641.5 757.160156 640.613281 C 758.058594 639.726562 758.914062 638.796875 759.71875 637.824219 C 760.527344 636.851562 761.285156 635.84375 761.992188 634.796875 C 762.699219 633.75 763.351562 632.671875 763.953125 631.5625 C 764.550781 630.449219 765.097656 629.3125 765.582031 628.144531 C 766.070312 626.980469 766.5 625.792969 766.871094 624.585938 C 767.238281 623.378906 767.546875 622.15625 767.796875 620.917969 C 768.046875 619.679688 768.230469 618.429688 768.355469 617.175781 C 768.480469 615.917969 768.542969 614.65625 768.542969 613.394531 C 768.542969 612.128906 768.480469 610.871094 768.355469 609.613281 C 768.230469 608.355469 768.046875 607.109375 767.796875 605.871094 C 767.546875 604.632812 767.238281 603.410156 766.871094 602.199219 C 766.5 600.992188 766.070312 599.808594 765.582031 598.640625 C 765.097656 597.476562 764.550781 596.335938 763.953125 595.226562 C 763.351562 594.113281 762.699219 593.035156 761.992188 591.988281 C 761.285156 590.941406 760.527344 589.933594 759.71875 588.960938 C 758.914062 587.992188 758.058594 587.0625 757.160156 586.175781 C 756.261719 585.289062 755.320312 584.449219 754.335938 583.65625 C 753.355469 582.859375 752.335938 582.117188 751.28125 581.425781 C 750.222656 580.734375 749.136719 580.09375 748.015625 579.507812 C 746.898438 578.925781 745.75 578.398438 744.578125 577.925781 C 743.40625 577.457031 742.214844 577.042969 741.003906 576.691406 C 739.789062 576.339844 738.5625 576.046875 737.320312 575.816406 C 736.082031 575.582031 734.832031 575.414062 733.574219 575.308594 C 732.3125 575.199219 731.054688 575.15625 729.789062 575.175781 Z M 42.03125 575.175781 " fill-opacity="1" fill-rule="nonzero"/></svg>