<svg xmlns="http://www.w3.org/2000/svg" xmlns:xlink="http://www.w3.org/1999/xlink" width="1024" zoomAndPan="magnify" viewBox="0 0 768 767.999994" height="1024" preserveAspectRatio="xMidYMid meet" version="1.0"><defs><g/><clipPath id="0941a67297"><path d="M 12.378906 12.378906 L 755.628906 12.378906 L 755.628906 755.628906 L 12.378906 755.628906 Z M 12.378906 12.378906 " clip-rule="nonzero"/></clipPath></defs><g clip-path="url(#0941a67297)"><path fill="#ba5a66" d="M 384.003906 12.378906 C 178.757812 12.378906 12.378906 178.757812 12.378906 384.003906 C 12.378906 589.246094 178.757812 755.628906 384.003906 755.628906 C 589.246094 755.628906 755.628906 589.246094 755.628906 384.003906 C 755.628906 178.757812 589.246094 12.378906 384.003906 12.378906 " fill-opacity="1" fill-rule="nonzero"/></g><g fill="#ffffff" fill-opacity="1"><g transform="translate(144.025655, 457.877219)"><g><path d="M 15 0 L 15 -143.984375 L 37.390625 -143.984375 L 54.984375 -95.1875 C 55.648438 -93.71875 56.25 -92.015625 56.78125 -90.078125 C 57.320312 -88.148438 57.789062 -86.382812 58.1875 -84.78125 C 58.71875 -82.78125 59.253906 -80.847656 59.796875 -78.984375 L 60.984375 -78.984375 C 61.523438 -80.847656 62.0625 -82.78125 62.59375 -84.78125 C 63.125 -86.382812 63.6875 -88.148438 64.28125 -90.078125 C 64.882812 -92.015625 65.453125 -93.71875 65.984375 -95.1875 L 82.59375 -143.984375 L 104.984375 -143.984375 L 104.984375 0 L 88.390625 0 L 88.390625 -100.984375 C 88.390625 -103.117188 88.421875 -105.519531 88.484375 -108.1875 C 88.554688 -110.851562 88.722656 -113.453125 88.984375 -115.984375 C 89.117188 -118.910156 89.253906 -121.84375 89.390625 -124.78125 L 88.1875 -124.78125 C 87.382812 -121.976562 86.582031 -119.242188 85.78125 -116.578125 C 85.113281 -114.179688 84.347656 -111.582031 83.484375 -108.78125 C 82.617188 -105.976562 81.785156 -103.378906 80.984375 -100.984375 L 68.59375 -63.984375 L 51.796875 -63.984375 L 39.390625 -100.984375 C 38.585938 -103.515625 37.71875 -106.179688 36.78125 -108.984375 C 35.851562 -111.785156 35.054688 -114.382812 34.390625 -116.78125 C 33.585938 -119.582031 32.789062 -122.316406 32 -124.984375 L 31 -124.984375 C 31.125 -122.046875 31.253906 -119.113281 31.390625 -116.1875 C 31.390625 -113.78125 31.421875 -111.210938 31.484375 -108.484375 C 31.554688 -105.753906 31.59375 -103.253906 31.59375 -100.984375 L 31.59375 0 Z M 15 0 "/></g></g></g><g fill="#ffffff" fill-opacity="1"><g transform="translate(264.004432, 457.877219)"><g><path d="M 19 0 L 19 -143.984375 L 103.984375 -143.984375 L 103.984375 -127.578125 L 37 -127.578125 L 37 -82.390625 L 96.984375 -82.390625 L 96.984375 -65.984375 L 37 -65.984375 L 37 -16.390625 L 103.984375 -16.390625 L 103.984375 0 Z M 19 0 "/></g></g></g><g fill="#ffffff" fill-opacity="1"><g transform="translate(383.983208, 457.877219)"><g><path d="M 17 -143.984375 L 39.796875 -143.984375 L 77.984375 -47.390625 C 79.054688 -44.992188 80.054688 -42.226562 80.984375 -39.09375 C 81.921875 -35.957031 82.722656 -32.988281 83.390625 -30.1875 C 84.316406 -26.863281 85.179688 -23.46875 85.984375 -20 L 87.59375 -20 C 87.59375 -20 87.523438 -20.695312 87.390625 -22.09375 C 87.253906 -23.5 87.050781 -25.398438 86.78125 -27.796875 C 86.519531 -30.191406 86.285156 -32.957031 86.078125 -36.09375 C 85.878906 -39.226562 85.78125 -42.53125 85.78125 -46 L 85.78125 -143.984375 L 102.984375 -143.984375 L 102.984375 0 L 80.1875 0 L 42.59375 -96.78125 C 41.53125 -99.851562 40.460938 -102.988281 39.390625 -106.1875 C 38.328125 -109.382812 37.460938 -112.316406 36.796875 -114.984375 C 35.859375 -118.046875 35.054688 -121.113281 34.390625 -124.1875 L 32.796875 -124.1875 C 33.054688 -122.050781 33.320312 -119.648438 33.59375 -116.984375 C 33.726562 -114.710938 33.859375 -112.007812 33.984375 -108.875 C 34.117188 -105.75 34.1875 -102.253906 34.1875 -98.390625 L 34.1875 0 L 17 0 Z M 17 -143.984375 "/></g></g></g><g fill="#ffffff" fill-opacity="1"><g transform="translate(503.961985, 457.877219)"><g><path d="M 59.984375 2 C 46.253906 2 35.65625 -1.726562 28.1875 -9.1875 C 20.726562 -16.65625 17 -26.925781 17 -40 L 17 -143.984375 L 35 -143.984375 L 35 -40 C 35 -32 37.128906 -25.664062 41.390625 -21 C 45.660156 -16.332031 51.859375 -14 59.984375 -14 C 67.984375 -14 74.148438 -16.332031 78.484375 -21 C 82.816406 -25.664062 84.984375 -32 84.984375 -40 L 84.984375 -143.984375 L 102.984375 -143.984375 L 102.984375 -40 C 102.984375 -26.800781 99.25 -16.5 91.78125 -9.09375 C 84.320312 -1.695312 73.722656 2 59.984375 2 Z M 59.984375 2 "/></g></g></g></svg>