<svg xmlns="http://www.w3.org/2000/svg" xmlns:xlink="http://www.w3.org/1999/xlink" width="1024" zoomAndPan="magnify" viewBox="0 0 768 576" height="768" preserveAspectRatio="xMidYMid meet" version="1.0"><defs><g><g id="id1"/></g></defs><g fill="rgb(0%, 0%, 0%)" fill-opacity="1"><g transform="translate(71.175758, 456.343244)"><g><path d="M 0.984375 0 L 0.984375 -1.625 L 8.1875 -11.21875 L 1.390625 -11.21875 L 1.390625 -12.875 L 10.71875 -12.875 L 10.71875 -11.25 L 3.515625 -1.65625 L 10.96875 -1.65625 L 10.96875 0 Z M 7.21875 -14.296875 L 4.78125 -14.296875 L 2 -17.5 L 2 -17.75 L 3.234375 -17.75 L 6 -15.734375 L 6.015625 -15.734375 L 8.625 -17.75 L 9.875 -17.75 L 9.875 -17.5 Z M 7.21875 -14.296875 "/></g></g></g><g fill="rgb(0%, 0%, 0%)" fill-opacity="1"><g transform="translate(83.363691, 456.343244)"><g><path d="M 3.28125 -5.984375 C 3.28125 -4.503906 3.585938 -3.363281 4.203125 -2.5625 C 4.816406 -1.769531 5.707031 -1.375 6.875 -1.375 C 7.800781 -1.375 8.546875 -1.554688 9.109375 -1.921875 C 9.671875 -2.296875 10.050781 -2.769531 10.25 -3.34375 L 12.125 -2.8125 C 11.351562 -0.78125 9.601562 0.234375 6.875 0.234375 C 4.96875 0.234375 3.515625 -0.332031 2.515625 -1.46875 C 1.523438 -2.601562 1.03125 -4.285156 1.03125 -6.515625 C 1.03125 -8.648438 1.523438 -10.28125 2.515625 -11.40625 C 3.515625 -12.539062 4.941406 -13.109375 6.796875 -13.109375 C 10.578125 -13.109375 12.46875 -10.828125 12.46875 -6.265625 L 12.46875 -5.984375 Z M 10.265625 -7.625 C 10.140625 -8.988281 9.789062 -9.976562 9.21875 -10.59375 C 8.644531 -11.21875 7.828125 -11.53125 6.765625 -11.53125 C 5.722656 -11.53125 4.894531 -11.179688 4.28125 -10.484375 C 3.675781 -9.796875 3.351562 -8.84375 3.3125 -7.625 Z M 10.265625 -7.625 "/></g></g></g><g fill="rgb(0%, 0%, 0%)" fill-opacity="1"><g transform="translate(96.920386, 456.343244)"><g><path d="M 9.8125 0 L 9.8125 -8.171875 C 9.8125 -9.015625 9.726562 -9.671875 9.5625 -10.140625 C 9.394531 -10.609375 9.128906 -10.945312 8.765625 -11.15625 C 8.398438 -11.363281 7.867188 -11.46875 7.171875 -11.46875 C 6.140625 -11.46875 5.320312 -11.113281 4.71875 -10.40625 C 4.125 -9.695312 3.828125 -8.71875 3.828125 -7.46875 L 3.828125 0 L 1.6875 0 L 1.6875 -10.125 C 1.6875 -11.625 1.664062 -12.539062 1.625 -12.875 L 3.640625 -12.875 C 3.648438 -12.832031 3.65625 -12.722656 3.65625 -12.546875 C 3.664062 -12.378906 3.675781 -12.179688 3.6875 -11.953125 C 3.707031 -11.722656 3.722656 -11.296875 3.734375 -10.671875 L 3.765625 -10.671875 C 4.265625 -11.566406 4.835938 -12.195312 5.484375 -12.5625 C 6.128906 -12.925781 6.929688 -13.109375 7.890625 -13.109375 C 9.304688 -13.109375 10.335938 -12.757812 10.984375 -12.0625 C 11.640625 -11.363281 11.96875 -10.203125 11.96875 -8.578125 L 11.96875 0 Z M 9.8125 0 "/></g></g></g><g fill="rgb(0%, 0%, 0%)" fill-opacity="1"><g transform="translate(110.47708, 456.343244)"><g><path d="M 2.265625 5.0625 C 1.679688 5.0625 1.191406 5.015625 0.796875 4.921875 L 0.796875 3.328125 C 1.097656 3.367188 1.429688 3.390625 1.796875 3.390625 C 3.128906 3.390625 4.1875 2.410156 4.96875 0.453125 L 5.171875 -0.0625 L 0.0625 -12.875 L 2.34375 -12.875 L 5.0625 -5.765625 C 5.101562 -5.648438 5.148438 -5.515625 5.203125 -5.359375 C 5.253906 -5.203125 5.429688 -4.679688 5.734375 -3.796875 C 6.035156 -2.921875 6.195312 -2.429688 6.21875 -2.328125 L 7.0625 -4.671875 L 9.875 -12.875 L 12.140625 -12.875 L 7.1875 0 C 6.65625 1.375 6.160156 2.394531 5.703125 3.0625 C 5.242188 3.738281 4.734375 4.238281 4.171875 4.5625 C 3.609375 4.894531 2.972656 5.0625 2.265625 5.0625 Z M 2.265625 5.0625 "/></g></g></g><g fill="rgb(0%, 0%, 0%)" fill-opacity="1"><g transform="translate(57.617795, 489.366314)"><g><path d="M 12.40625 -8.71875 C 12.40625 -5.84375 11.878906 -3.628906 10.828125 -2.078125 C 9.773438 -0.535156 8.273438 0.234375 6.328125 0.234375 C 5.023438 0.234375 3.976562 -0.0390625 3.1875 -0.59375 C 2.394531 -1.144531 1.828125 -2.035156 1.484375 -3.265625 L 3.53125 -3.578125 C 3.957031 -2.179688 4.90625 -1.484375 6.375 -1.484375 C 7.601562 -1.484375 8.550781 -2.054688 9.21875 -3.203125 C 9.894531 -4.347656 10.25 -5.976562 10.28125 -8.09375 C 9.96875 -7.375 9.425781 -6.796875 8.65625 -6.359375 C 7.882812 -5.929688 7.039062 -5.71875 6.125 -5.71875 C 4.613281 -5.71875 3.40625 -6.234375 2.5 -7.265625 C 1.59375 -8.296875 1.140625 -9.664062 1.140625 -11.375 C 1.140625 -13.132812 1.628906 -14.515625 2.609375 -15.515625 C 3.597656 -16.515625 4.96875 -17.015625 6.71875 -17.015625 C 8.582031 -17.015625 9.992188 -16.320312 10.953125 -14.9375 C 11.921875 -13.5625 12.40625 -11.488281 12.40625 -8.71875 Z M 10.0625 -10.796875 C 10.0625 -12.140625 9.753906 -13.222656 9.140625 -14.046875 C 8.523438 -14.867188 7.695312 -15.28125 6.65625 -15.28125 C 5.625 -15.28125 4.8125 -14.925781 4.21875 -14.21875 C 3.625 -13.519531 3.328125 -12.570312 3.328125 -11.375 C 3.328125 -10.15625 3.625 -9.191406 4.21875 -8.484375 C 4.8125 -7.773438 5.613281 -7.421875 6.625 -7.421875 C 7.25 -7.421875 7.828125 -7.5625 8.359375 -7.84375 C 8.890625 -8.125 9.304688 -8.519531 9.609375 -9.03125 C 9.910156 -9.550781 10.0625 -10.140625 10.0625 -10.796875 Z M 10.0625 -10.796875 "/></g></g></g><g fill="rgb(0%, 0%, 0%)" fill-opacity="1"><g transform="translate(71.17449, 489.366314)"><g><path d="M 12.609375 -8.390625 C 12.609375 -5.585938 12.113281 -3.445312 11.125 -1.96875 C 10.132812 -0.5 8.675781 0.234375 6.75 0.234375 C 4.820312 0.234375 3.375 -0.5 2.40625 -1.96875 C 1.4375 -3.4375 0.953125 -5.578125 0.953125 -8.390625 C 0.953125 -11.273438 1.421875 -13.429688 2.359375 -14.859375 C 3.296875 -16.296875 4.78125 -17.015625 6.8125 -17.015625 C 8.789062 -17.015625 10.25 -16.285156 11.1875 -14.828125 C 12.132812 -13.378906 12.609375 -11.234375 12.609375 -8.390625 Z M 10.421875 -8.390625 C 10.421875 -10.804688 10.140625 -12.554688 9.578125 -13.640625 C 9.023438 -14.734375 8.101562 -15.28125 6.8125 -15.28125 C 5.5 -15.28125 4.554688 -14.742188 3.984375 -13.671875 C 3.410156 -12.597656 3.125 -10.835938 3.125 -8.390625 C 3.125 -6.003906 3.414062 -4.257812 4 -3.15625 C 4.582031 -2.0625 5.503906 -1.515625 6.765625 -1.515625 C 8.035156 -1.515625 8.960938 -2.078125 9.546875 -3.203125 C 10.128906 -4.328125 10.421875 -6.054688 10.421875 -8.390625 Z M 10.421875 -8.390625 "/></g></g></g><g fill="rgb(0%, 0%, 0%)" fill-opacity="1"><g transform="translate(84.731184, 489.366314)"><g><path d="M 12.609375 -8.390625 C 12.609375 -5.585938 12.113281 -3.445312 11.125 -1.96875 C 10.132812 -0.5 8.675781 0.234375 6.75 0.234375 C 4.820312 0.234375 3.375 -0.5 2.40625 -1.96875 C 1.4375 -3.4375 0.953125 -5.578125 0.953125 -8.390625 C 0.953125 -11.273438 1.421875 -13.429688 2.359375 -14.859375 C 3.296875 -16.296875 4.78125 -17.015625 6.8125 -17.015625 C 8.789062 -17.015625 10.25 -16.285156 11.1875 -14.828125 C 12.132812 -13.378906 12.609375 -11.234375 12.609375 -8.390625 Z M 10.421875 -8.390625 C 10.421875 -10.804688 10.140625 -12.554688 9.578125 -13.640625 C 9.023438 -14.734375 8.101562 -15.28125 6.8125 -15.28125 C 5.5 -15.28125 4.554688 -14.742188 3.984375 -13.671875 C 3.410156 -12.597656 3.125 -10.835938 3.125 -8.390625 C 3.125 -6.003906 3.414062 -4.257812 4 -3.15625 C 4.582031 -2.0625 5.503906 -1.515625 6.765625 -1.515625 C 8.035156 -1.515625 8.960938 -2.078125 9.546875 -3.203125 C 10.128906 -4.328125 10.421875 -6.054688 10.421875 -8.390625 Z M 10.421875 -8.390625 "/></g></g></g><g fill="rgb(0%, 0%, 0%)" fill-opacity="1"><g transform="translate(98.287879, 489.366314)"><g/></g></g><g fill="rgb(0%, 0%, 0%)" fill-opacity="1"><g transform="translate(105.060275, 489.366314)"><g><path d="M 6.59375 -0.09375 C 5.882812 0.09375 5.160156 0.1875 4.421875 0.1875 C 2.710938 0.1875 1.859375 -0.78125 1.859375 -2.71875 L 1.859375 -11.3125 L 0.375 -11.3125 L 0.375 -12.875 L 1.9375 -12.875 L 2.578125 -15.765625 L 4 -15.765625 L 4 -12.875 L 6.375 -12.875 L 6.375 -11.3125 L 4 -11.3125 L 4 -3.1875 C 4 -2.570312 4.097656 -2.140625 4.296875 -1.890625 C 4.503906 -1.640625 4.859375 -1.515625 5.359375 -1.515625 C 5.640625 -1.515625 6.050781 -1.566406 6.59375 -1.671875 Z M 6.59375 -0.09375 "/></g></g></g><g fill="rgb(0%, 0%, 0%)" fill-opacity="1"><g transform="translate(111.832671, 489.366314)"><g><path d="M 1.625 -15.609375 L 1.625 -17.65625 L 3.765625 -17.65625 L 3.765625 -15.609375 Z M 1.625 0 L 1.625 -12.875 L 3.765625 -12.875 L 3.765625 0 Z M 1.625 0 "/></g></g></g><g fill="rgb(0%, 0%, 0%)" fill-opacity="1"><g transform="translate(117.248208, 489.366314)"><g><path d="M 11.3125 -3.5625 C 11.3125 -2.34375 10.851562 -1.40625 9.9375 -0.75 C 9.019531 -0.09375 7.734375 0.234375 6.078125 0.234375 C 4.472656 0.234375 3.238281 -0.0234375 2.375 -0.546875 C 1.507812 -1.078125 0.941406 -1.898438 0.671875 -3.015625 L 2.578125 -3.390625 C 2.753906 -2.703125 3.128906 -2.195312 3.703125 -1.875 C 4.273438 -1.550781 5.066406 -1.390625 6.078125 -1.390625 C 7.171875 -1.390625 7.96875 -1.554688 8.46875 -1.890625 C 8.96875 -2.222656 9.21875 -2.722656 9.21875 -3.390625 C 9.21875 -3.898438 9.039062 -4.3125 8.6875 -4.625 C 8.34375 -4.945312 7.785156 -5.210938 7.015625 -5.421875 L 5.46875 -5.8125 C 4.238281 -6.132812 3.363281 -6.445312 2.84375 -6.75 C 2.332031 -7.0625 1.925781 -7.429688 1.625 -7.859375 C 1.332031 -8.296875 1.1875 -8.832031 1.1875 -9.46875 C 1.1875 -10.644531 1.601562 -11.539062 2.4375 -12.15625 C 3.28125 -12.769531 4.503906 -13.078125 6.109375 -13.078125 C 7.523438 -13.078125 8.648438 -12.828125 9.484375 -12.328125 C 10.328125 -11.828125 10.859375 -11.023438 11.078125 -9.921875 L 9.15625 -9.6875 C 9.03125 -10.257812 8.707031 -10.695312 8.1875 -11 C 7.675781 -11.3125 6.984375 -11.46875 6.109375 -11.46875 C 5.140625 -11.46875 4.421875 -11.316406 3.953125 -11.015625 C 3.492188 -10.722656 3.265625 -10.28125 3.265625 -9.6875 C 3.265625 -9.320312 3.359375 -9.019531 3.546875 -8.78125 C 3.742188 -8.539062 4.03125 -8.335938 4.40625 -8.171875 C 4.78125 -8.003906 5.566406 -7.773438 6.765625 -7.484375 C 7.898438 -7.203125 8.71875 -6.9375 9.21875 -6.6875 C 9.71875 -6.445312 10.109375 -6.179688 10.390625 -5.890625 C 10.679688 -5.597656 10.90625 -5.257812 11.0625 -4.875 C 11.226562 -4.488281 11.3125 -4.050781 11.3125 -3.5625 Z M 11.3125 -3.5625 "/></g></g></g><g fill="rgb(0%, 0%, 0%)" fill-opacity="1"><g transform="translate(129.436141, 489.366314)"><g><path d="M 2.21875 0 L 2.21875 -2.609375 L 4.546875 -2.609375 L 4.546875 0 Z M 2.21875 0 "/></g></g></g><g fill="rgb(0%, 0%, 0%)" fill-opacity="1"><g transform="translate(645.346617, 100.279599)"><g><path d="M 9.140625 0 L 9.140625 -8.171875 C 9.140625 -9.410156 8.96875 -10.269531 8.625 -10.75 C 8.28125 -11.226562 7.664062 -11.46875 6.78125 -11.46875 C 5.875 -11.46875 5.15625 -11.113281 4.625 -10.40625 C 4.09375 -9.707031 3.828125 -8.726562 3.828125 -7.46875 L 3.828125 0 L 1.6875 0 L 1.6875 -10.125 C 1.6875 -11.625 1.664062 -12.539062 1.625 -12.875 L 3.640625 -12.875 C 3.648438 -12.832031 3.65625 -12.722656 3.65625 -12.546875 C 3.664062 -12.378906 3.675781 -12.179688 3.6875 -11.953125 C 3.707031 -11.722656 3.722656 -11.296875 3.734375 -10.671875 L 3.765625 -10.671875 C 4.234375 -11.585938 4.765625 -12.222656 5.359375 -12.578125 C 5.953125 -12.929688 6.675781 -13.109375 7.53125 -13.109375 C 8.507812 -13.109375 9.28125 -12.914062 9.84375 -12.53125 C 10.414062 -12.144531 10.8125 -11.523438 11.03125 -10.671875 L 11.0625 -10.671875 C 11.507812 -11.535156 12.046875 -12.15625 12.671875 -12.53125 C 13.304688 -12.914062 14.070312 -13.109375 14.96875 -13.109375 C 16.269531 -13.109375 17.21875 -12.753906 17.8125 -12.046875 C 18.40625 -11.347656 18.703125 -10.191406 18.703125 -8.578125 L 18.703125 0 L 16.578125 0 L 16.578125 -8.171875 C 16.578125 -9.410156 16.40625 -10.269531 16.0625 -10.75 C 15.726562 -11.226562 15.113281 -11.46875 14.21875 -11.46875 C 13.28125 -11.46875 12.550781 -11.117188 12.03125 -10.421875 C 11.519531 -9.722656 11.265625 -8.738281 11.265625 -7.46875 L 11.265625 0 Z M 9.140625 0 "/></g></g></g><g fill="rgb(0%, 0%, 0%)" fill-opacity="1"><g transform="translate(665.651903, 100.279599)"><g><path d="M 3.734375 -12.875 L 3.734375 -4.71875 C 3.734375 -3.863281 3.816406 -3.203125 3.984375 -2.734375 C 4.148438 -2.265625 4.414062 -1.925781 4.78125 -1.71875 C 5.144531 -1.519531 5.679688 -1.421875 6.390625 -1.421875 C 7.421875 -1.421875 8.234375 -1.769531 8.828125 -2.46875 C 9.421875 -3.175781 9.71875 -4.160156 9.71875 -5.421875 L 9.71875 -12.875 L 11.859375 -12.875 L 11.859375 -2.75 C 11.859375 -1.25 11.882812 -0.332031 11.9375 0 L 9.921875 0 C 9.910156 -0.0390625 9.898438 -0.144531 9.890625 -0.3125 C 9.878906 -0.488281 9.867188 -0.691406 9.859375 -0.921875 C 9.847656 -1.148438 9.832031 -1.578125 9.8125 -2.203125 L 9.78125 -2.203125 C 9.289062 -1.316406 8.722656 -0.6875 8.078125 -0.3125 C 7.429688 0.0507812 6.628906 0.234375 5.671875 0.234375 C 4.253906 0.234375 3.21875 -0.113281 2.5625 -0.8125 C 1.90625 -1.519531 1.578125 -2.679688 1.578125 -4.296875 L 1.578125 -12.875 Z M 3.734375 -12.875 "/></g></g></g><g fill="rgb(0%, 0%, 0%)" fill-opacity="1"><g transform="translate(679.208598, 100.279599)"><g><path d="M 0.984375 0 L 0.984375 -1.625 L 8.1875 -11.21875 L 1.390625 -11.21875 L 1.390625 -12.875 L 10.71875 -12.875 L 10.71875 -11.25 L 3.515625 -1.65625 L 10.96875 -1.65625 L 10.96875 0 Z M 7.21875 -14.296875 L 4.78125 -14.296875 L 2 -17.5 L 2 -17.75 L 3.234375 -17.75 L 6 -15.734375 L 6.015625 -15.734375 L 8.625 -17.75 L 9.875 -17.75 L 9.875 -17.5 Z M 7.21875 -14.296875 "/></g></g></g><g fill="rgb(0%, 0%, 0%)" fill-opacity="1"><g transform="translate(691.396531, 100.279599)"><g><path d="M 1.625 -15.609375 L 1.625 -17.65625 L 3.765625 -17.65625 L 3.765625 -15.609375 Z M 1.625 0 L 1.625 -12.875 L 3.765625 -12.875 L 3.765625 0 Z M 1.625 0 "/></g></g></g><g fill="rgb(0%, 0%, 0%)" fill-opacity="1"><g transform="translate(631.788654, 133.30267)"><g><path d="M 10.484375 -3.796875 L 10.484375 0 L 8.46875 0 L 8.46875 -3.796875 L 0.5625 -3.796875 L 0.5625 -5.46875 L 8.234375 -16.765625 L 10.484375 -16.765625 L 10.484375 -5.484375 L 12.84375 -5.484375 L 12.84375 -3.796875 Z M 8.46875 -14.359375 C 8.445312 -14.304688 8.332031 -14.09375 8.125 -13.71875 C 7.914062 -13.34375 7.765625 -13.082031 7.671875 -12.9375 L 3.375 -6.609375 L 2.71875 -5.71875 L 2.53125 -5.484375 L 8.46875 -5.484375 Z M 8.46875 -14.359375 "/></g></g></g><g fill="rgb(0%, 0%, 0%)" fill-opacity="1"><g transform="translate(645.345349, 133.30267)"><g><path d="M 12.484375 -4.625 C 12.484375 -3.082031 11.988281 -1.882812 11 -1.03125 C 10.019531 -0.1875 8.617188 0.234375 6.796875 0.234375 C 5.097656 0.234375 3.742188 -0.144531 2.734375 -0.90625 C 1.722656 -1.675781 1.117188 -2.8125 0.921875 -4.3125 L 3.140625 -4.515625 C 3.429688 -2.523438 4.648438 -1.53125 6.796875 -1.53125 C 7.878906 -1.53125 8.726562 -1.796875 9.34375 -2.328125 C 9.957031 -2.859375 10.265625 -3.648438 10.265625 -4.703125 C 10.265625 -5.609375 9.910156 -6.316406 9.203125 -6.828125 C 8.503906 -7.347656 7.492188 -7.609375 6.171875 -7.609375 L 4.953125 -7.609375 L 4.953125 -9.46875 L 6.125 -9.46875 C 7.289062 -9.46875 8.195312 -9.722656 8.84375 -10.234375 C 9.488281 -10.742188 9.8125 -11.453125 9.8125 -12.359375 C 9.8125 -13.253906 9.546875 -13.960938 9.015625 -14.484375 C 8.492188 -15.003906 7.710938 -15.265625 6.671875 -15.265625 C 5.734375 -15.265625 4.972656 -15.019531 4.390625 -14.53125 C 3.804688 -14.050781 3.46875 -13.367188 3.375 -12.484375 L 1.21875 -12.65625 C 1.375 -14.019531 1.941406 -15.085938 2.921875 -15.859375 C 3.898438 -16.628906 5.160156 -17.015625 6.703125 -17.015625 C 8.378906 -17.015625 9.679688 -16.625 10.609375 -15.84375 C 11.546875 -15.0625 12.015625 -13.972656 12.015625 -12.578125 C 12.015625 -11.503906 11.710938 -10.632812 11.109375 -9.96875 C 10.515625 -9.300781 9.648438 -8.847656 8.515625 -8.609375 L 8.515625 -8.5625 C 9.765625 -8.425781 10.738281 -8.003906 11.4375 -7.296875 C 12.132812 -6.585938 12.484375 -5.695312 12.484375 -4.625 Z M 12.484375 -4.625 "/></g></g></g><g fill="rgb(0%, 0%, 0%)" fill-opacity="1"><g transform="translate(658.902044, 133.30267)"><g><path d="M 12.609375 -8.390625 C 12.609375 -5.585938 12.113281 -3.445312 11.125 -1.96875 C 10.132812 -0.5 8.675781 0.234375 6.75 0.234375 C 4.820312 0.234375 3.375 -0.5 2.40625 -1.96875 C 1.4375 -3.4375 0.953125 -5.578125 0.953125 -8.390625 C 0.953125 -11.273438 1.421875 -13.429688 2.359375 -14.859375 C 3.296875 -16.296875 4.78125 -17.015625 6.8125 -17.015625 C 8.789062 -17.015625 10.25 -16.285156 11.1875 -14.828125 C 12.132812 -13.378906 12.609375 -11.234375 12.609375 -8.390625 Z M 10.421875 -8.390625 C 10.421875 -10.804688 10.140625 -12.554688 9.578125 -13.640625 C 9.023438 -14.734375 8.101562 -15.28125 6.8125 -15.28125 C 5.5 -15.28125 4.554688 -14.742188 3.984375 -13.671875 C 3.410156 -12.597656 3.125 -10.835938 3.125 -8.390625 C 3.125 -6.003906 3.414062 -4.257812 4 -3.15625 C 4.582031 -2.0625 5.503906 -1.515625 6.765625 -1.515625 C 8.035156 -1.515625 8.960938 -2.078125 9.546875 -3.203125 C 10.128906 -4.328125 10.421875 -6.054688 10.421875 -8.390625 Z M 10.421875 -8.390625 "/></g></g></g><g fill="rgb(0%, 0%, 0%)" fill-opacity="1"><g transform="translate(672.458738, 133.30267)"><g/></g></g><g fill="rgb(0%, 0%, 0%)" fill-opacity="1"><g transform="translate(679.231135, 133.30267)"><g><path d="M 6.59375 -0.09375 C 5.882812 0.09375 5.160156 0.1875 4.421875 0.1875 C 2.710938 0.1875 1.859375 -0.78125 1.859375 -2.71875 L 1.859375 -11.3125 L 0.375 -11.3125 L 0.375 -12.875 L 1.9375 -12.875 L 2.578125 -15.765625 L 4 -15.765625 L 4 -12.875 L 6.375 -12.875 L 6.375 -11.3125 L 4 -11.3125 L 4 -3.1875 C 4 -2.570312 4.097656 -2.140625 4.296875 -1.890625 C 4.503906 -1.640625 4.859375 -1.515625 5.359375 -1.515625 C 5.640625 -1.515625 6.050781 -1.566406 6.59375 -1.671875 Z M 6.59375 -0.09375 "/></g></g></g><g fill="rgb(0%, 0%, 0%)" fill-opacity="1"><g transform="translate(686.003531, 133.30267)"><g><path d="M 1.625 -15.609375 L 1.625 -17.65625 L 3.765625 -17.65625 L 3.765625 -15.609375 Z M 1.625 0 L 1.625 -12.875 L 3.765625 -12.875 L 3.765625 0 Z M 1.625 0 "/></g></g></g><g fill="rgb(0%, 0%, 0%)" fill-opacity="1"><g transform="translate(691.419067, 133.30267)"><g><path d="M 11.3125 -3.5625 C 11.3125 -2.34375 10.851562 -1.40625 9.9375 -0.75 C 9.019531 -0.09375 7.734375 0.234375 6.078125 0.234375 C 4.472656 0.234375 3.238281 -0.0234375 2.375 -0.546875 C 1.507812 -1.078125 0.941406 -1.898438 0.671875 -3.015625 L 2.578125 -3.390625 C 2.753906 -2.703125 3.128906 -2.195312 3.703125 -1.875 C 4.273438 -1.550781 5.066406 -1.390625 6.078125 -1.390625 C 7.171875 -1.390625 7.96875 -1.554688 8.46875 -1.890625 C 8.96875 -2.222656 9.21875 -2.722656 9.21875 -3.390625 C 9.21875 -3.898438 9.039062 -4.3125 8.6875 -4.625 C 8.34375 -4.945312 7.785156 -5.210938 7.015625 -5.421875 L 5.46875 -5.8125 C 4.238281 -6.132812 3.363281 -6.445312 2.84375 -6.75 C 2.332031 -7.0625 1.925781 -7.429688 1.625 -7.859375 C 1.332031 -8.296875 1.1875 -8.832031 1.1875 -9.46875 C 1.1875 -10.644531 1.601562 -11.539062 2.4375 -12.15625 C 3.28125 -12.769531 4.503906 -13.078125 6.109375 -13.078125 C 7.523438 -13.078125 8.648438 -12.828125 9.484375 -12.328125 C 10.328125 -11.828125 10.859375 -11.023438 11.078125 -9.921875 L 9.15625 -9.6875 C 9.03125 -10.257812 8.707031 -10.695312 8.1875 -11 C 7.675781 -11.3125 6.984375 -11.46875 6.109375 -11.46875 C 5.140625 -11.46875 4.421875 -11.316406 3.953125 -11.015625 C 3.492188 -10.722656 3.265625 -10.28125 3.265625 -9.6875 C 3.265625 -9.320312 3.359375 -9.019531 3.546875 -8.78125 C 3.742188 -8.539062 4.03125 -8.335938 4.40625 -8.171875 C 4.78125 -8.003906 5.566406 -7.773438 6.765625 -7.484375 C 7.898438 -7.203125 8.71875 -6.9375 9.21875 -6.6875 C 9.71875 -6.445312 10.109375 -6.179688 10.390625 -5.890625 C 10.679688 -5.597656 10.90625 -5.257812 11.0625 -4.875 C 11.226562 -4.488281 11.3125 -4.050781 11.3125 -3.5625 Z M 11.3125 -3.5625 "/></g></g></g><g fill="rgb(0%, 0%, 0%)" fill-opacity="1"><g transform="translate(703.607, 133.30267)"><g><path d="M 2.21875 0 L 2.21875 -2.609375 L 4.546875 -2.609375 L 4.546875 0 Z M 2.21875 0 "/></g></g></g><path fill="rgb(0%, 76.858521%, 79.998779%)" d="M 384 0.832031 C 390.214844 0.832031 396.425781 1.035156 402.628906 1.4375 C 408.832031 1.84375 415.011719 2.445312 421.175781 3.253906 C 427.339844 4.058594 433.46875 5.066406 439.570312 6.269531 C 445.667969 7.476562 451.71875 8.878906 457.726562 10.476562 C 463.730469 12.074219 469.679688 13.867188 475.570312 15.855469 C 481.460938 17.839844 487.28125 20.015625 493.027344 22.382812 C 498.777344 24.746094 504.441406 27.292969 510.023438 30.027344 C 515.605469 32.761719 521.09375 35.671875 526.488281 38.761719 C 531.882812 41.855469 537.167969 45.117188 542.347656 48.550781 C 547.53125 51.984375 552.59375 55.585938 557.539062 59.347656 C 562.488281 63.113281 567.304688 67.03125 571.996094 71.109375 C 576.6875 75.1875 581.242188 79.414062 585.660156 83.789062 C 590.078125 88.160156 594.347656 92.671875 598.46875 97.324219 C 602.59375 101.976562 606.558594 106.757812 610.371094 111.667969 C 614.183594 116.578125 617.832031 121.605469 621.316406 126.753906 C 624.800781 131.898438 628.113281 137.15625 631.257812 142.519531 C 634.402344 147.878906 637.367188 153.339844 640.152344 158.894531 C 642.941406 164.449219 645.546875 170.089844 647.964844 175.816406 C 650.386719 181.542969 652.617188 187.339844 654.660156 193.210938 C 656.703125 199.082031 658.554688 205.011719 660.210938 211 C 661.871094 216.992188 663.332031 223.03125 664.597656 229.117188 C 665.859375 235.203125 666.925781 241.324219 667.792969 247.476562 C 668.660156 253.632812 669.324219 259.808594 669.789062 266.007812 C 670.253906 272.207031 670.515625 278.414062 670.574219 284.628906 C 670.636719 290.84375 670.496094 297.054688 670.152344 303.261719 C 669.808594 309.46875 669.261719 315.65625 668.515625 321.828125 C 667.769531 328 666.824219 334.140625 665.679688 340.25 C 664.53125 346.359375 663.191406 352.421875 661.648438 358.445312 C 660.109375 364.46875 658.375 370.433594 656.445312 376.339844 C 654.515625 382.25 652.398438 388.089844 650.089844 393.863281 C 647.78125 399.632812 645.289062 405.324219 642.609375 410.933594 C 639.929688 416.542969 637.070312 422.058594 634.035156 427.480469 L 384 287.421875 Z M 384 0.832031 " fill-opacity="1" fill-rule="nonzero"/><path fill="rgb(0%, 59.609985%, 73.728943%)" d="M 640.722656 414.808594 C 638.839844 418.597656 636.875 422.347656 634.828125 426.050781 C 632.78125 429.753906 630.65625 433.410156 628.445312 437.019531 C 626.238281 440.628906 623.949219 444.1875 621.582031 447.695312 C 619.21875 451.203125 616.773438 454.65625 614.253906 458.054688 C 611.734375 461.457031 609.140625 464.796875 606.472656 468.082031 C 603.804688 471.367188 601.066406 474.59375 598.257812 477.757812 C 595.445312 480.917969 592.566406 484.019531 589.621094 487.054688 C 586.671875 490.089844 583.660156 493.0625 580.578125 495.964844 C 577.5 498.867188 574.359375 501.699219 571.15625 504.460938 C 567.949219 507.226562 564.683594 509.917969 561.363281 512.535156 C 558.039062 515.152344 554.65625 517.699219 551.222656 520.167969 C 547.785156 522.636719 544.296875 525.027344 540.753906 527.34375 C 537.210938 529.65625 533.617188 531.890625 529.976562 534.046875 C 526.335938 536.203125 522.648438 538.277344 518.914062 540.269531 C 515.179688 542.261719 511.40625 544.167969 507.585938 545.992188 C 503.769531 547.816406 499.914062 549.558594 496.019531 551.210938 C 492.125 552.867188 488.195312 554.433594 484.230469 555.914062 C 480.265625 557.390625 476.269531 558.785156 472.242188 560.085938 C 468.21875 561.390625 464.164062 562.601562 460.085938 563.726562 C 456.007812 564.847656 451.902344 565.882812 447.777344 566.824219 C 443.652344 567.765625 439.507812 568.617188 435.34375 569.375 C 431.183594 570.132812 427.003906 570.796875 422.8125 571.371094 C 418.617188 571.945312 414.414062 572.421875 410.203125 572.808594 C 405.988281 573.195312 401.769531 573.492188 397.542969 573.691406 C 393.3125 573.890625 389.085938 573.996094 384.855469 574.007812 C 380.621094 574.023438 376.390625 573.941406 372.164062 573.765625 C 367.9375 573.589844 363.714844 573.324219 359.5 572.960938 C 355.28125 572.597656 351.078125 572.144531 346.878906 571.597656 C 342.683594 571.046875 338.503906 570.40625 334.335938 569.675781 C 330.167969 568.941406 326.019531 568.117188 321.886719 567.199219 C 317.757812 566.28125 313.648438 565.273438 309.5625 564.175781 C 305.476562 563.074219 301.414062 561.886719 297.382812 560.609375 C 293.347656 559.328125 289.34375 557.960938 285.371094 556.503906 C 281.398438 555.046875 277.460938 553.503906 273.554688 551.875 C 269.648438 550.242188 265.785156 548.527344 261.953125 546.726562 C 258.125 544.921875 254.339844 543.039062 250.59375 541.066406 C 246.847656 539.097656 243.148438 537.046875 239.496094 534.914062 C 235.839844 532.777344 232.234375 530.566406 228.679688 528.273438 C 225.125 525.980469 221.621094 523.609375 218.167969 521.160156 C 214.71875 518.710938 211.320312 516.1875 207.984375 513.585938 C 204.644531 510.988281 201.363281 508.316406 198.140625 505.574219 C 194.921875 502.828125 191.761719 500.015625 188.664062 497.128906 C 185.570312 494.246094 182.539062 491.296875 179.574219 488.277344 C 176.605469 485.257812 173.710938 482.175781 170.878906 479.027344 C 168.050781 475.882812 165.292969 472.675781 162.605469 469.40625 C 159.917969 466.136719 157.304688 462.808594 154.765625 459.425781 C 152.226562 456.039062 149.761719 452.601562 147.375 449.105469 C 144.988281 445.613281 142.679688 442.070312 140.449219 438.472656 C 138.21875 434.875 136.070312 431.234375 134 427.542969 C 131.929688 423.851562 129.945312 420.113281 128.042969 416.335938 C 126.136719 412.554688 124.320312 408.738281 122.585938 404.875 C 120.851562 401.015625 119.203125 397.121094 117.640625 393.1875 C 116.078125 389.253906 114.605469 385.289062 113.21875 381.292969 C 111.832031 377.292969 110.535156 373.265625 109.328125 369.210938 C 108.121094 365.15625 107.003906 361.074219 105.976562 356.96875 C 104.949219 352.863281 104.015625 348.738281 103.171875 344.59375 C 102.328125 340.445312 101.574219 336.28125 100.914062 332.101562 C 100.253906 327.921875 99.6875 323.730469 99.214844 319.527344 C 98.742188 315.320312 98.359375 311.109375 98.074219 306.886719 C 97.785156 302.664062 97.589844 298.4375 97.492188 294.207031 C 97.390625 289.976562 97.382812 285.746094 97.472656 281.515625 C 97.558594 277.285156 97.738281 273.058594 98.015625 268.835938 C 98.289062 264.613281 98.65625 260.398438 99.117188 256.191406 C 99.578125 251.988281 100.132812 247.792969 100.777344 243.609375 C 101.425781 239.429688 102.164062 235.261719 102.996094 231.113281 C 103.828125 226.964844 104.753906 222.835938 105.769531 218.726562 C 106.78125 214.617188 107.886719 210.535156 109.082031 206.472656 C 110.277344 202.414062 111.5625 198.382812 112.9375 194.378906 C 114.3125 190.378906 115.773438 186.40625 117.324219 182.46875 C 118.875 178.53125 120.507812 174.628906 122.230469 170.765625 C 123.957031 166.898438 125.761719 163.074219 127.65625 159.289062 C 129.546875 155.503906 131.523438 151.761719 133.578125 148.0625 C 135.636719 144.367188 137.777344 140.714844 139.996094 137.113281 C 142.214844 133.507812 144.511719 129.957031 146.890625 126.457031 C 149.265625 122.953125 151.71875 119.507812 154.25 116.113281 C 156.777344 112.722656 159.382812 109.386719 162.058594 106.109375 C 164.734375 102.832031 167.484375 99.617188 170.304688 96.460938 C 173.121094 93.304688 176.011719 90.214844 178.96875 87.1875 C 181.925781 84.15625 184.945312 81.199219 188.035156 78.304688 C 191.121094 75.410156 194.269531 72.585938 197.484375 69.832031 C 200.695312 67.078125 203.96875 64.394531 207.300781 61.785156 C 210.628906 59.179688 214.019531 56.644531 217.460938 54.183594 C 220.90625 51.726562 224.402344 49.34375 227.949219 47.039062 C 231.5 44.734375 235.097656 42.511719 238.746094 40.367188 C 242.394531 38.222656 246.085938 36.160156 249.824219 34.175781 C 253.5625 32.195312 257.34375 30.300781 261.167969 28.484375 C 264.992188 26.671875 268.851562 24.945312 272.75 23.300781 C 276.652344 21.660156 280.585938 20.101562 284.554688 18.636719 C 288.519531 17.167969 292.519531 15.785156 296.550781 14.496094 C 300.578125 13.203125 304.636719 12.003906 308.71875 10.890625 C 312.800781 9.78125 316.90625 8.761719 321.03125 7.832031 C 325.160156 6.902344 329.308594 6.0625 333.472656 5.316406 C 337.636719 4.570312 341.816406 3.917969 346.011719 3.359375 C 350.203125 2.796875 354.40625 2.328125 358.621094 1.957031 C 362.835938 1.582031 367.058594 1.300781 371.285156 1.113281 C 375.511719 0.925781 379.742188 0.832031 383.972656 0.832031 L 384 287.421875 Z M 640.722656 414.808594 " fill-opacity="1" fill-rule="nonzero"/><path fill="rgb(0%, 42.349243%, 63.919067%)" d="M 384 0.832031 C 383.992188 0.832031 384 0.832031 384.027344 0.832031 L 384 287.421875 Z M 384 0.832031 " fill-opacity="1" fill-rule="nonzero"/></svg>