<svg xmlns="http://www.w3.org/2000/svg" xmlns:xlink="http://www.w3.org/1999/xlink" width="1024" zoomAndPan="magnify" viewBox="0 0 768 767.999994" height="1024" preserveAspectRatio="xMidYMid meet" version="1.0"><defs><clipPath id="id1"><path d="M 0 27.839844 L 768 27.839844 L 768 740.339844 L 0 740.339844 Z M 0 27.839844 " clip-rule="nonzero"/></clipPath></defs><g clip-path="url(#id1)"><path fill="#8e999b" d="M 384 27.839844 C 353.726562 27.839844 329.207031 52.367188 329.207031 82.648438 C 329.207031 102.898438 340.285156 120.367188 356.601562 129.855469 L 356.601562 192.261719 L 219.621094 192.261719 C 144.292969 192.261719 82.636719 253.933594 82.636719 329.28125 L 82.636719 356.6875 L 0.445312 356.6875 L 0.445312 548.511719 L 82.636719 548.511719 L 82.636719 685.53125 L 301.808594 685.53125 L 301.808594 630.722656 L 247.015625 630.722656 L 247.015625 575.917969 L 520.984375 575.917969 L 520.984375 603.320312 L 575.777344 603.320312 L 575.777344 521.109375 L 192.222656 521.109375 L 192.222656 630.722656 L 137.429688 630.722656 L 137.429688 329.28125 C 137.429688 283.558594 173.910156 247.070312 219.621094 247.070312 L 548.378906 247.070312 C 594.089844 247.070312 630.570312 283.558594 630.570312 329.28125 L 630.570312 575.917969 C 630.570312 621.640625 594.089844 658.128906 548.378906 658.128906 L 458.589844 658.128906 C 449.105469 641.804688 431.640625 630.722656 411.398438 630.722656 C 381.125 630.722656 356.601562 655.25 356.601562 685.53125 C 356.601562 715.8125 381.125 740.339844 411.398438 740.339844 C 431.640625 740.339844 449.105469 729.257812 458.589844 712.9375 L 548.378906 712.9375 C 623.707031 712.9375 685.363281 651.265625 685.363281 575.917969 L 685.363281 548.511719 L 767.554688 548.511719 L 767.554688 356.6875 L 685.363281 356.6875 L 685.363281 329.28125 C 685.363281 253.933594 623.707031 192.261719 548.378906 192.261719 L 411.398438 192.261719 L 411.398438 129.855469 C 427.714844 120.367188 438.792969 102.898438 438.792969 82.648438 C 438.792969 52.367188 414.273438 27.839844 384 27.839844 Z M 274.414062 329.28125 C 244.140625 329.28125 219.621094 353.808594 219.621094 384.089844 C 219.621094 414.371094 244.140625 438.898438 274.414062 438.898438 C 304.6875 438.898438 329.207031 414.371094 329.207031 384.089844 C 329.207031 353.808594 304.6875 329.28125 274.414062 329.28125 Z M 493.585938 329.28125 C 463.3125 329.28125 438.792969 353.808594 438.792969 384.089844 C 438.792969 414.371094 463.3125 438.898438 493.585938 438.898438 C 523.859375 438.898438 548.378906 414.371094 548.378906 384.089844 C 548.378906 353.808594 523.859375 329.28125 493.585938 329.28125 Z M 55.242188 411.492188 L 82.636719 411.492188 L 82.636719 493.707031 L 55.242188 493.707031 Z M 685.363281 411.492188 L 712.757812 411.492188 L 712.757812 493.707031 L 685.363281 493.707031 Z M 685.363281 411.492188 " fill-opacity="1" fill-rule="nonzero"/></g></svg>