<svg xmlns="http://www.w3.org/2000/svg" xmlns:xlink="http://www.w3.org/1999/xlink" width="1024" zoomAndPan="magnify" viewBox="0 0 768 767.999994" height="1024" preserveAspectRatio="xMidYMid meet" version="1.0"><path fill="#8e999b" d="M 244.824219 683.40625 L 662.027344 683.40625 C 688.714844 683.40625 710.433594 661.695312 710.433594 635.019531 C 710.433594 590.242188 677.035156 551.722656 632.695312 545.402344 L 502.652344 526.820312 L 746.058594 283.484375 C 759.867188 269.679688 767.484375 251.289062 767.484375 231.773438 C 767.484375 212.257812 759.867188 193.835938 746.058594 180.03125 C 718.402344 152.414062 670.226562 152.414062 642.570312 180.03125 L 540.246094 282.324219 C 537.566406 268.484375 530.886719 255.257812 520.175781 244.546875 C 499.75 224.160156 470.253906 218.320312 444.601562 227.097656 C 443.535156 209.933594 436.4375 193.09375 423.367188 180.03125 C 403.714844 160.414062 373.320312 153.769531 347.792969 162.542969 C 346.730469 145.414062 339.628906 128.574219 326.5625 115.511719 C 298.003906 86.960938 251.632812 86.960938 223.074219 115.511719 L 62.3125 276.226562 C 22.492188 316.035156 0.546875 368.972656 0.546875 425.300781 C 0.546875 481.625 22.492188 534.5625 62.3125 574.371094 L 119.363281 631.40625 C 152.890625 664.957031 197.453125 683.40625 244.824219 683.40625 Z M 694.296875 190.867188 C 704.753906 190.867188 715.242188 194.867188 723.210938 202.835938 C 739.152344 218.773438 739.152344 244.742188 723.210938 260.679688 L 456.992188 526.820312 C 452.667969 531.144531 451.152344 537.53125 453.085938 543.335938 C 455.054688 549.144531 460.089844 553.335938 466.125 554.207031 L 628.148438 577.339844 C 656.671875 581.402344 678.164062 606.210938 678.164062 635.019531 C 678.164062 643.921875 670.902344 651.148438 662.027344 651.148438 L 244.824219 651.148438 C 206.070312 651.148438 169.574219 636.050781 142.113281 608.628906 L 85.0625 551.59375 C 51.339844 517.882812 32.753906 473.011719 32.753906 425.332031 C 32.753906 377.652344 51.339844 332.777344 85.0625 299.066406 L 245.890625 138.316406 C 261.347656 122.867188 288.289062 122.867188 303.746094 138.316406 C 311.460938 146.058594 315.71875 156.320312 315.71875 167.222656 C 315.71875 178.125 311.460938 188.417969 303.746094 196.128906 L 279.546875 220.320312 C 276.382812 223.484375 274.835938 227.613281 274.835938 231.742188 C 274.835938 235.871094 276.414062 240 279.546875 243.160156 C 285.839844 249.453125 296.066406 249.453125 302.359375 243.160156 L 342.695312 202.835938 C 358.636719 186.902344 384.613281 186.902344 400.554688 202.835938 C 416.496094 218.773438 416.496094 244.742188 400.554688 260.679688 L 360.21875 301.003906 C 357.054688 304.164062 355.507812 308.292969 355.507812 312.421875 C 355.507812 316.550781 357.085938 320.679688 360.21875 323.84375 C 366.511719 330.132812 376.738281 330.132812 383.03125 323.84375 L 439.503906 267.386719 C 454.960938 251.9375 481.902344 251.9375 497.359375 267.386719 C 505.074219 275.128906 509.332031 285.390625 509.332031 296.292969 C 509.332031 307.195312 505.074219 317.457031 497.359375 325.199219 L 440.890625 381.652344 C 437.726562 384.8125 436.179688 388.941406 436.179688 393.070312 C 436.179688 397.199219 437.761719 401.332031 440.890625 404.492188 C 447.183594 410.78125 457.410156 410.78125 463.703125 404.492188 L 665.386719 202.871094 C 673.355469 194.867188 683.84375 190.867188 694.296875 190.867188 Z M 694.296875 190.867188 " fill-opacity="1" fill-rule="nonzero"/></svg>