<svg xmlns="http://www.w3.org/2000/svg" xmlns:xlink="http://www.w3.org/1999/xlink" width="1024" zoomAndPan="magnify" viewBox="0 0 768 576" height="768" preserveAspectRatio="xMidYMid meet" version="1.0"><defs><g><g id="id1"/></g></defs><g fill="rgb(0%, 0%, 0%)" fill-opacity="1"><g transform="translate(199.686101, 380.219969)"><g><path d="M 0.5625 0 L 0.5625 -0.9375 L 4.703125 -6.453125 L 0.796875 -6.453125 L 0.796875 -7.390625 L 6.15625 -7.390625 L 6.15625 -6.453125 L 2.015625 -0.953125 L 6.296875 -0.953125 L 6.296875 0 Z M 4 -8.203125 L 2.59375 -8.203125 L 1 -10.0625 L 1 -10.1875 L 1.71875 -10.1875 L 3.296875 -9.03125 L 3.3125 -9.03125 L 4.8125 -10.1875 L 5.53125 -10.1875 L 5.53125 -10.0625 Z M 4 -8.203125 "/></g></g></g><g fill="rgb(0%, 0%, 0%)" fill-opacity="1"><g transform="translate(206.682265, 380.219969)"><g><path d="M 1.890625 -3.4375 C 1.890625 -2.59375 2.0625 -1.9375 2.40625 -1.46875 C 2.757812 -1.007812 3.273438 -0.78125 3.953125 -0.78125 C 4.484375 -0.78125 4.910156 -0.882812 5.234375 -1.09375 C 5.554688 -1.3125 5.773438 -1.585938 5.890625 -1.921875 L 6.96875 -1.609375 C 6.519531 -0.441406 5.515625 0.140625 3.953125 0.140625 C 2.859375 0.140625 2.023438 -0.179688 1.453125 -0.828125 C 0.878906 -1.484375 0.59375 -2.457031 0.59375 -3.75 C 0.59375 -4.96875 0.878906 -5.898438 1.453125 -6.546875 C 2.023438 -7.203125 2.84375 -7.53125 3.90625 -7.53125 C 6.082031 -7.53125 7.171875 -6.222656 7.171875 -3.609375 L 7.171875 -3.4375 Z M 5.890625 -4.375 C 5.828125 -5.15625 5.628906 -5.722656 5.296875 -6.078125 C 4.972656 -6.441406 4.503906 -6.625 3.890625 -6.625 C 3.285156 -6.625 2.804688 -6.421875 2.453125 -6.015625 C 2.109375 -5.617188 1.925781 -5.070312 1.90625 -4.375 Z M 5.890625 -4.375 "/></g></g></g><g fill="rgb(0%, 0%, 0%)" fill-opacity="1"><g transform="translate(214.464131, 380.219969)"><g><path d="M 5.640625 0 L 5.640625 -4.6875 C 5.640625 -5.175781 5.59375 -5.554688 5.5 -5.828125 C 5.40625 -6.097656 5.25 -6.289062 5.03125 -6.40625 C 4.820312 -6.519531 4.515625 -6.578125 4.109375 -6.578125 C 3.523438 -6.578125 3.0625 -6.375 2.71875 -5.96875 C 2.375 -5.5625 2.203125 -5 2.203125 -4.28125 L 2.203125 0 L 0.96875 0 L 0.96875 -5.8125 C 0.96875 -6.675781 0.957031 -7.203125 0.9375 -7.390625 L 2.09375 -7.390625 C 2.09375 -7.367188 2.09375 -7.304688 2.09375 -7.203125 C 2.101562 -7.109375 2.113281 -6.992188 2.125 -6.859375 C 2.132812 -6.734375 2.140625 -6.488281 2.140625 -6.125 L 2.171875 -6.125 C 2.453125 -6.632812 2.773438 -6.992188 3.140625 -7.203125 C 3.515625 -7.421875 3.976562 -7.53125 4.53125 -7.53125 C 5.34375 -7.53125 5.9375 -7.328125 6.3125 -6.921875 C 6.6875 -6.523438 6.875 -5.859375 6.875 -4.921875 L 6.875 0 Z M 5.640625 0 "/></g></g></g><g fill="rgb(0%, 0%, 0%)" fill-opacity="1"><g transform="translate(222.245997, 380.219969)"><g><path d="M 1.3125 2.90625 C 0.96875 2.90625 0.679688 2.878906 0.453125 2.828125 L 0.453125 1.90625 C 0.628906 1.9375 0.820312 1.953125 1.03125 1.953125 C 1.800781 1.953125 2.40625 1.390625 2.84375 0.265625 L 2.96875 -0.03125 L 0.03125 -7.390625 L 1.34375 -7.390625 L 2.90625 -3.3125 C 2.925781 -3.25 2.953125 -3.171875 2.984375 -3.078125 C 3.015625 -2.992188 3.117188 -2.695312 3.296875 -2.1875 C 3.472656 -1.675781 3.566406 -1.394531 3.578125 -1.34375 L 4.046875 -2.6875 L 5.671875 -7.390625 L 6.96875 -7.390625 L 4.125 0 C 3.820312 0.789062 3.535156 1.378906 3.265625 1.765625 C 3.003906 2.148438 2.710938 2.4375 2.390625 2.625 C 2.078125 2.8125 1.71875 2.90625 1.3125 2.90625 Z M 1.3125 2.90625 "/></g></g></g><g fill="rgb(0%, 0%, 0%)" fill-opacity="1"><g transform="translate(191.903506, 399.175999)"><g><path d="M 7.125 -5.015625 C 7.125 -3.359375 6.820312 -2.082031 6.21875 -1.1875 C 5.613281 -0.300781 4.753906 0.140625 3.640625 0.140625 C 2.890625 0.140625 2.285156 -0.015625 1.828125 -0.328125 C 1.378906 -0.648438 1.054688 -1.164062 0.859375 -1.875 L 2.03125 -2.0625 C 2.28125 -1.257812 2.820312 -0.859375 3.65625 -0.859375 C 4.363281 -0.859375 4.910156 -1.1875 5.296875 -1.84375 C 5.679688 -2.5 5.882812 -3.4375 5.90625 -4.65625 C 5.726562 -4.238281 5.414062 -3.90625 4.96875 -3.65625 C 4.53125 -3.40625 4.046875 -3.28125 3.515625 -3.28125 C 2.648438 -3.28125 1.957031 -3.578125 1.4375 -4.171875 C 0.914062 -4.765625 0.65625 -5.550781 0.65625 -6.53125 C 0.65625 -7.539062 0.9375 -8.332031 1.5 -8.90625 C 2.070312 -9.488281 2.859375 -9.78125 3.859375 -9.78125 C 4.929688 -9.78125 5.742188 -9.378906 6.296875 -8.578125 C 6.847656 -7.785156 7.125 -6.597656 7.125 -5.015625 Z M 5.78125 -6.203125 C 5.78125 -6.972656 5.601562 -7.59375 5.25 -8.0625 C 4.894531 -8.539062 4.421875 -8.78125 3.828125 -8.78125 C 3.234375 -8.78125 2.765625 -8.578125 2.421875 -8.171875 C 2.078125 -7.765625 1.90625 -7.21875 1.90625 -6.53125 C 1.90625 -5.832031 2.078125 -5.28125 2.421875 -4.875 C 2.765625 -4.46875 3.226562 -4.265625 3.8125 -4.265625 C 4.164062 -4.265625 4.492188 -4.34375 4.796875 -4.5 C 5.097656 -4.664062 5.335938 -4.894531 5.515625 -5.1875 C 5.691406 -5.488281 5.78125 -5.828125 5.78125 -6.203125 Z M 5.78125 -6.203125 "/></g></g></g><g fill="rgb(0%, 0%, 0%)" fill-opacity="1"><g transform="translate(199.685372, 399.175999)"><g><path d="M 7.234375 -4.8125 C 7.234375 -3.207031 6.945312 -1.976562 6.375 -1.125 C 5.8125 -0.28125 4.976562 0.140625 3.875 0.140625 C 2.769531 0.140625 1.9375 -0.28125 1.375 -1.125 C 0.820312 -1.96875 0.546875 -3.195312 0.546875 -4.8125 C 0.546875 -6.46875 0.816406 -7.707031 1.359375 -8.53125 C 1.898438 -9.363281 2.753906 -9.78125 3.921875 -9.78125 C 5.054688 -9.78125 5.890625 -9.363281 6.421875 -8.53125 C 6.960938 -7.695312 7.234375 -6.457031 7.234375 -4.8125 Z M 5.984375 -4.8125 C 5.984375 -6.207031 5.820312 -7.21875 5.5 -7.84375 C 5.1875 -8.46875 4.660156 -8.78125 3.921875 -8.78125 C 3.160156 -8.78125 2.613281 -8.472656 2.28125 -7.859375 C 1.957031 -7.242188 1.796875 -6.226562 1.796875 -4.8125 C 1.796875 -3.445312 1.960938 -2.445312 2.296875 -1.8125 C 2.628906 -1.1875 3.160156 -0.875 3.890625 -0.875 C 4.617188 -0.875 5.148438 -1.195312 5.484375 -1.84375 C 5.816406 -2.488281 5.984375 -3.476562 5.984375 -4.8125 Z M 5.984375 -4.8125 "/></g></g></g><g fill="rgb(0%, 0%, 0%)" fill-opacity="1"><g transform="translate(207.467239, 399.175999)"><g><path d="M 7.234375 -4.8125 C 7.234375 -3.207031 6.945312 -1.976562 6.375 -1.125 C 5.8125 -0.28125 4.976562 0.140625 3.875 0.140625 C 2.769531 0.140625 1.9375 -0.28125 1.375 -1.125 C 0.820312 -1.96875 0.546875 -3.195312 0.546875 -4.8125 C 0.546875 -6.46875 0.816406 -7.707031 1.359375 -8.53125 C 1.898438 -9.363281 2.753906 -9.78125 3.921875 -9.78125 C 5.054688 -9.78125 5.890625 -9.363281 6.421875 -8.53125 C 6.960938 -7.695312 7.234375 -6.457031 7.234375 -4.8125 Z M 5.984375 -4.8125 C 5.984375 -6.207031 5.820312 -7.21875 5.5 -7.84375 C 5.1875 -8.46875 4.660156 -8.78125 3.921875 -8.78125 C 3.160156 -8.78125 2.613281 -8.472656 2.28125 -7.859375 C 1.957031 -7.242188 1.796875 -6.226562 1.796875 -4.8125 C 1.796875 -3.445312 1.960938 -2.445312 2.296875 -1.8125 C 2.628906 -1.1875 3.160156 -0.875 3.890625 -0.875 C 4.617188 -0.875 5.148438 -1.195312 5.484375 -1.84375 C 5.816406 -2.488281 5.984375 -3.476562 5.984375 -4.8125 Z M 5.984375 -4.8125 "/></g></g></g><g fill="rgb(0%, 0%, 0%)" fill-opacity="1"><g transform="translate(215.249105, 399.175999)"><g/></g></g><g fill="rgb(0%, 0%, 0%)" fill-opacity="1"><g transform="translate(219.136622, 399.175999)"><g><path d="M 3.78125 -0.0625 C 3.375 0.0507812 2.960938 0.109375 2.546875 0.109375 C 1.554688 0.109375 1.0625 -0.445312 1.0625 -1.5625 L 1.0625 -6.5 L 0.21875 -6.5 L 0.21875 -7.390625 L 1.109375 -7.390625 L 1.484375 -9.046875 L 2.296875 -9.046875 L 2.296875 -7.390625 L 3.671875 -7.390625 L 3.671875 -6.5 L 2.296875 -6.5 L 2.296875 -1.828125 C 2.296875 -1.472656 2.351562 -1.222656 2.46875 -1.078125 C 2.582031 -0.941406 2.785156 -0.875 3.078125 -0.875 C 3.242188 -0.875 3.476562 -0.90625 3.78125 -0.96875 Z M 3.78125 -0.0625 "/></g></g></g><g fill="rgb(0%, 0%, 0%)" fill-opacity="1"><g transform="translate(223.024139, 399.175999)"><g><path d="M 0.9375 -8.96875 L 0.9375 -10.140625 L 2.171875 -10.140625 L 2.171875 -8.96875 Z M 0.9375 0 L 0.9375 -7.390625 L 2.171875 -7.390625 L 2.171875 0 Z M 0.9375 0 "/></g></g></g><g fill="rgb(0%, 0%, 0%)" fill-opacity="1"><g transform="translate(226.132786, 399.175999)"><g><path d="M 6.5 -2.046875 C 6.5 -1.347656 6.234375 -0.804688 5.703125 -0.421875 C 5.179688 -0.046875 4.445312 0.140625 3.5 0.140625 C 2.570312 0.140625 1.859375 -0.0078125 1.359375 -0.3125 C 0.859375 -0.613281 0.535156 -1.085938 0.390625 -1.734375 L 1.484375 -1.953125 C 1.585938 -1.554688 1.800781 -1.265625 2.125 -1.078125 C 2.457031 -0.890625 2.914062 -0.796875 3.5 -0.796875 C 4.125 -0.796875 4.578125 -0.890625 4.859375 -1.078125 C 5.148438 -1.273438 5.296875 -1.566406 5.296875 -1.953125 C 5.296875 -2.242188 5.195312 -2.476562 5 -2.65625 C 4.800781 -2.84375 4.476562 -2.992188 4.03125 -3.109375 L 3.140625 -3.34375 C 2.429688 -3.519531 1.925781 -3.695312 1.625 -3.875 C 1.332031 -4.050781 1.101562 -4.265625 0.9375 -4.515625 C 0.769531 -4.765625 0.6875 -5.070312 0.6875 -5.4375 C 0.6875 -6.113281 0.925781 -6.628906 1.40625 -6.984375 C 1.882812 -7.335938 2.582031 -7.515625 3.5 -7.515625 C 4.320312 -7.515625 4.972656 -7.367188 5.453125 -7.078125 C 5.929688 -6.796875 6.234375 -6.335938 6.359375 -5.703125 L 5.25 -5.5625 C 5.1875 -5.894531 5.003906 -6.144531 4.703125 -6.3125 C 4.410156 -6.488281 4.007812 -6.578125 3.5 -6.578125 C 2.945312 -6.578125 2.535156 -6.492188 2.265625 -6.328125 C 2.003906 -6.160156 1.875 -5.90625 1.875 -5.5625 C 1.875 -5.351562 1.925781 -5.179688 2.03125 -5.046875 C 2.144531 -4.910156 2.304688 -4.789062 2.515625 -4.6875 C 2.734375 -4.59375 3.191406 -4.460938 3.890625 -4.296875 C 4.535156 -4.128906 5 -3.976562 5.28125 -3.84375 C 5.570312 -3.707031 5.800781 -3.550781 5.96875 -3.375 C 6.132812 -3.207031 6.265625 -3.015625 6.359375 -2.796875 C 6.453125 -2.578125 6.5 -2.328125 6.5 -2.046875 Z M 6.5 -2.046875 "/></g></g></g><g fill="rgb(0%, 0%, 0%)" fill-opacity="1"><g transform="translate(233.128951, 399.175999)"><g><path d="M 1.28125 0 L 1.28125 -1.5 L 2.609375 -1.5 L 2.609375 0 Z M 1.28125 0 "/></g></g></g><g fill="rgb(0%, 0%, 0%)" fill-opacity="1"><g transform="translate(529.27393, 175.830944)"><g><path d="M 5.25 0 L 5.25 -4.6875 C 5.25 -5.40625 5.148438 -5.898438 4.953125 -6.171875 C 4.753906 -6.441406 4.398438 -6.578125 3.890625 -6.578125 C 3.367188 -6.578125 2.953125 -6.375 2.640625 -5.96875 C 2.335938 -5.570312 2.1875 -5.007812 2.1875 -4.28125 L 2.1875 0 L 0.96875 0 L 0.96875 -5.8125 C 0.96875 -6.675781 0.957031 -7.203125 0.9375 -7.390625 L 2.09375 -7.390625 C 2.09375 -7.367188 2.09375 -7.304688 2.09375 -7.203125 C 2.101562 -7.109375 2.113281 -6.992188 2.125 -6.859375 C 2.132812 -6.734375 2.140625 -6.488281 2.140625 -6.125 L 2.171875 -6.125 C 2.429688 -6.65625 2.734375 -7.019531 3.078125 -7.21875 C 3.421875 -7.425781 3.835938 -7.53125 4.328125 -7.53125 C 4.890625 -7.53125 5.332031 -7.414062 5.65625 -7.1875 C 5.976562 -6.96875 6.207031 -6.613281 6.34375 -6.125 L 6.359375 -6.125 C 6.609375 -6.625 6.914062 -6.984375 7.28125 -7.203125 C 7.644531 -7.421875 8.082031 -7.53125 8.59375 -7.53125 C 9.34375 -7.53125 9.882812 -7.328125 10.21875 -6.921875 C 10.5625 -6.515625 10.734375 -5.847656 10.734375 -4.921875 L 10.734375 0 L 9.515625 0 L 9.515625 -4.6875 C 9.515625 -5.40625 9.414062 -5.898438 9.21875 -6.171875 C 9.03125 -6.441406 8.679688 -6.578125 8.171875 -6.578125 C 7.628906 -6.578125 7.207031 -6.378906 6.90625 -5.984375 C 6.613281 -5.585938 6.46875 -5.019531 6.46875 -4.28125 L 6.46875 0 Z M 5.25 0 "/></g></g></g><g fill="rgb(0%, 0%, 0%)" fill-opacity="1"><g transform="translate(540.929649, 175.830944)"><g><path d="M 2.140625 -7.390625 L 2.140625 -2.703125 C 2.140625 -2.210938 2.1875 -1.832031 2.28125 -1.5625 C 2.382812 -1.300781 2.539062 -1.109375 2.75 -0.984375 C 2.957031 -0.867188 3.265625 -0.8125 3.671875 -0.8125 C 4.265625 -0.8125 4.726562 -1.015625 5.0625 -1.421875 C 5.40625 -1.828125 5.578125 -2.390625 5.578125 -3.109375 L 5.578125 -7.390625 L 6.8125 -7.390625 L 6.8125 -1.578125 C 6.8125 -0.710938 6.828125 -0.1875 6.859375 0 L 5.6875 0 C 5.6875 -0.0195312 5.679688 -0.078125 5.671875 -0.171875 C 5.671875 -0.273438 5.664062 -0.390625 5.65625 -0.515625 C 5.65625 -0.648438 5.648438 -0.898438 5.640625 -1.265625 L 5.625 -1.265625 C 5.34375 -0.753906 5.015625 -0.390625 4.640625 -0.171875 C 4.265625 0.0351562 3.800781 0.140625 3.25 0.140625 C 2.4375 0.140625 1.84375 -0.0625 1.46875 -0.46875 C 1.09375 -0.875 0.90625 -1.539062 0.90625 -2.46875 L 0.90625 -7.390625 Z M 2.140625 -7.390625 "/></g></g></g><g fill="rgb(0%, 0%, 0%)" fill-opacity="1"><g transform="translate(548.711515, 175.830944)"><g><path d="M 0.5625 0 L 0.5625 -0.9375 L 4.703125 -6.453125 L 0.796875 -6.453125 L 0.796875 -7.390625 L 6.15625 -7.390625 L 6.15625 -6.453125 L 2.015625 -0.953125 L 6.296875 -0.953125 L 6.296875 0 Z M 4 -8.203125 L 2.59375 -8.203125 L 1 -10.0625 L 1 -10.1875 L 1.71875 -10.1875 L 3.296875 -9.03125 L 3.3125 -9.03125 L 4.8125 -10.1875 L 5.53125 -10.1875 L 5.53125 -10.0625 Z M 4 -8.203125 "/></g></g></g><g fill="rgb(0%, 0%, 0%)" fill-opacity="1"><g transform="translate(555.707679, 175.830944)"><g><path d="M 0.9375 -8.96875 L 0.9375 -10.140625 L 2.171875 -10.140625 L 2.171875 -8.96875 Z M 0.9375 0 L 0.9375 -7.390625 L 2.171875 -7.390625 L 2.171875 0 Z M 0.9375 0 "/></g></g></g><g fill="rgb(0%, 0%, 0%)" fill-opacity="1"><g transform="translate(521.491336, 194.786975)"><g><path d="M 6.015625 -2.1875 L 6.015625 0 L 4.859375 0 L 4.859375 -2.1875 L 0.328125 -2.1875 L 0.328125 -3.140625 L 4.734375 -9.625 L 6.015625 -9.625 L 6.015625 -3.15625 L 7.375 -3.15625 L 7.375 -2.1875 Z M 4.859375 -8.25 C 4.847656 -8.21875 4.78125 -8.09375 4.65625 -7.875 C 4.539062 -7.664062 4.457031 -7.519531 4.40625 -7.4375 L 1.9375 -3.796875 L 1.5625 -3.28125 L 1.453125 -3.15625 L 4.859375 -3.15625 Z M 4.859375 -8.25 "/></g></g></g><g fill="rgb(0%, 0%, 0%)" fill-opacity="1"><g transform="translate(529.273202, 194.786975)"><g><path d="M 7.171875 -2.65625 C 7.171875 -1.769531 6.882812 -1.082031 6.3125 -0.59375 C 5.75 -0.101562 4.945312 0.140625 3.90625 0.140625 C 2.925781 0.140625 2.144531 -0.078125 1.5625 -0.515625 C 0.988281 -0.960938 0.644531 -1.613281 0.53125 -2.46875 L 1.8125 -2.59375 C 1.96875 -1.445312 2.664062 -0.875 3.90625 -0.875 C 4.519531 -0.875 5.003906 -1.023438 5.359375 -1.328125 C 5.710938 -1.640625 5.890625 -2.097656 5.890625 -2.703125 C 5.890625 -3.222656 5.6875 -3.628906 5.28125 -3.921875 C 4.882812 -4.222656 4.304688 -4.375 3.546875 -4.375 L 2.84375 -4.375 L 2.84375 -5.4375 L 3.515625 -5.4375 C 4.191406 -5.4375 4.710938 -5.582031 5.078125 -5.875 C 5.453125 -6.164062 5.640625 -6.570312 5.640625 -7.09375 C 5.640625 -7.613281 5.488281 -8.019531 5.1875 -8.3125 C 4.882812 -8.613281 4.429688 -8.765625 3.828125 -8.765625 C 3.285156 -8.765625 2.847656 -8.625 2.515625 -8.34375 C 2.179688 -8.070312 1.988281 -7.679688 1.9375 -7.171875 L 0.703125 -7.265625 C 0.785156 -8.054688 1.109375 -8.671875 1.671875 -9.109375 C 2.234375 -9.554688 2.957031 -9.78125 3.84375 -9.78125 C 4.8125 -9.78125 5.5625 -9.550781 6.09375 -9.09375 C 6.632812 -8.644531 6.90625 -8.019531 6.90625 -7.21875 C 6.90625 -6.601562 6.734375 -6.101562 6.390625 -5.71875 C 6.046875 -5.332031 5.546875 -5.070312 4.890625 -4.9375 L 4.890625 -4.921875 C 5.609375 -4.835938 6.164062 -4.59375 6.5625 -4.1875 C 6.96875 -3.78125 7.171875 -3.269531 7.171875 -2.65625 Z M 7.171875 -2.65625 "/></g></g></g><g fill="rgb(0%, 0%, 0%)" fill-opacity="1"><g transform="translate(537.055068, 194.786975)"><g><path d="M 7.234375 -4.8125 C 7.234375 -3.207031 6.945312 -1.976562 6.375 -1.125 C 5.8125 -0.28125 4.976562 0.140625 3.875 0.140625 C 2.769531 0.140625 1.9375 -0.28125 1.375 -1.125 C 0.820312 -1.96875 0.546875 -3.195312 0.546875 -4.8125 C 0.546875 -6.46875 0.816406 -7.707031 1.359375 -8.53125 C 1.898438 -9.363281 2.753906 -9.78125 3.921875 -9.78125 C 5.054688 -9.78125 5.890625 -9.363281 6.421875 -8.53125 C 6.960938 -7.695312 7.234375 -6.457031 7.234375 -4.8125 Z M 5.984375 -4.8125 C 5.984375 -6.207031 5.820312 -7.21875 5.5 -7.84375 C 5.1875 -8.46875 4.660156 -8.78125 3.921875 -8.78125 C 3.160156 -8.78125 2.613281 -8.472656 2.28125 -7.859375 C 1.957031 -7.242188 1.796875 -6.226562 1.796875 -4.8125 C 1.796875 -3.445312 1.960938 -2.445312 2.296875 -1.8125 C 2.628906 -1.1875 3.160156 -0.875 3.890625 -0.875 C 4.617188 -0.875 5.148438 -1.195312 5.484375 -1.84375 C 5.816406 -2.488281 5.984375 -3.476562 5.984375 -4.8125 Z M 5.984375 -4.8125 "/></g></g></g><g fill="rgb(0%, 0%, 0%)" fill-opacity="1"><g transform="translate(544.836934, 194.786975)"><g/></g></g><g fill="rgb(0%, 0%, 0%)" fill-opacity="1"><g transform="translate(548.724451, 194.786975)"><g><path d="M 3.78125 -0.0625 C 3.375 0.0507812 2.960938 0.109375 2.546875 0.109375 C 1.554688 0.109375 1.0625 -0.445312 1.0625 -1.5625 L 1.0625 -6.5 L 0.21875 -6.5 L 0.21875 -7.390625 L 1.109375 -7.390625 L 1.484375 -9.046875 L 2.296875 -9.046875 L 2.296875 -7.390625 L 3.671875 -7.390625 L 3.671875 -6.5 L 2.296875 -6.5 L 2.296875 -1.828125 C 2.296875 -1.472656 2.351562 -1.222656 2.46875 -1.078125 C 2.582031 -0.941406 2.785156 -0.875 3.078125 -0.875 C 3.242188 -0.875 3.476562 -0.90625 3.78125 -0.96875 Z M 3.78125 -0.0625 "/></g></g></g><g fill="rgb(0%, 0%, 0%)" fill-opacity="1"><g transform="translate(552.611969, 194.786975)"><g><path d="M 0.9375 -8.96875 L 0.9375 -10.140625 L 2.171875 -10.140625 L 2.171875 -8.96875 Z M 0.9375 0 L 0.9375 -7.390625 L 2.171875 -7.390625 L 2.171875 0 Z M 0.9375 0 "/></g></g></g><g fill="rgb(0%, 0%, 0%)" fill-opacity="1"><g transform="translate(555.720616, 194.786975)"><g><path d="M 6.5 -2.046875 C 6.5 -1.347656 6.234375 -0.804688 5.703125 -0.421875 C 5.179688 -0.046875 4.445312 0.140625 3.5 0.140625 C 2.570312 0.140625 1.859375 -0.0078125 1.359375 -0.3125 C 0.859375 -0.613281 0.535156 -1.085938 0.390625 -1.734375 L 1.484375 -1.953125 C 1.585938 -1.554688 1.800781 -1.265625 2.125 -1.078125 C 2.457031 -0.890625 2.914062 -0.796875 3.5 -0.796875 C 4.125 -0.796875 4.578125 -0.890625 4.859375 -1.078125 C 5.148438 -1.273438 5.296875 -1.566406 5.296875 -1.953125 C 5.296875 -2.242188 5.195312 -2.476562 5 -2.65625 C 4.800781 -2.84375 4.476562 -2.992188 4.03125 -3.109375 L 3.140625 -3.34375 C 2.429688 -3.519531 1.925781 -3.695312 1.625 -3.875 C 1.332031 -4.050781 1.101562 -4.265625 0.9375 -4.515625 C 0.769531 -4.765625 0.6875 -5.070312 0.6875 -5.4375 C 0.6875 -6.113281 0.925781 -6.628906 1.40625 -6.984375 C 1.882812 -7.335938 2.582031 -7.515625 3.5 -7.515625 C 4.320312 -7.515625 4.972656 -7.367188 5.453125 -7.078125 C 5.929688 -6.796875 6.234375 -6.335938 6.359375 -5.703125 L 5.25 -5.5625 C 5.1875 -5.894531 5.003906 -6.144531 4.703125 -6.3125 C 4.410156 -6.488281 4.007812 -6.578125 3.5 -6.578125 C 2.945312 -6.578125 2.535156 -6.492188 2.265625 -6.328125 C 2.003906 -6.160156 1.875 -5.90625 1.875 -5.5625 C 1.875 -5.351562 1.925781 -5.179688 2.03125 -5.046875 C 2.144531 -4.910156 2.304688 -4.789062 2.515625 -4.6875 C 2.734375 -4.59375 3.191406 -4.460938 3.890625 -4.296875 C 4.535156 -4.128906 5 -3.976562 5.28125 -3.84375 C 5.570312 -3.707031 5.800781 -3.550781 5.96875 -3.375 C 6.132812 -3.207031 6.265625 -3.015625 6.359375 -2.796875 C 6.453125 -2.578125 6.5 -2.328125 6.5 -2.046875 Z M 6.5 -2.046875 "/></g></g></g><g fill="rgb(0%, 0%, 0%)" fill-opacity="1"><g transform="translate(562.71678, 194.786975)"><g><path d="M 1.28125 0 L 1.28125 -1.5 L 2.609375 -1.5 L 2.609375 0 Z M 1.28125 0 "/></g></g></g><path fill="rgb(0%, 76.858521%, 79.998779%)" d="M 379.253906 118.746094 C 382.824219 118.746094 386.386719 118.863281 389.949219 119.09375 C 393.507812 119.324219 397.058594 119.671875 400.59375 120.136719 C 404.132812 120.597656 407.652344 121.175781 411.152344 121.867188 C 414.652344 122.558594 418.125 123.363281 421.574219 124.28125 C 425.023438 125.199219 428.4375 126.230469 431.816406 127.367188 C 435.199219 128.507812 438.539062 129.757812 441.839844 131.113281 C 445.140625 132.472656 448.390625 133.9375 451.597656 135.503906 C 454.800781 137.074219 457.949219 138.746094 461.046875 140.519531 C 464.140625 142.292969 467.175781 144.164062 470.152344 146.136719 C 473.125 148.109375 476.03125 150.175781 478.871094 152.335938 C 481.710938 154.496094 484.476562 156.746094 487.167969 159.085938 C 489.863281 161.425781 492.476562 163.851562 495.011719 166.363281 C 497.546875 168.875 500 171.464844 502.363281 174.136719 C 504.730469 176.804688 507.007812 179.550781 509.199219 182.367188 C 511.386719 185.1875 513.480469 188.074219 515.480469 191.027344 C 517.480469 193.980469 519.382812 197 521.1875 200.078125 C 522.992188 203.15625 524.691406 206.289062 526.292969 209.476562 C 527.894531 212.667969 529.386719 215.90625 530.777344 219.191406 C 532.167969 222.476562 533.449219 225.804688 534.621094 229.175781 C 535.792969 232.542969 536.855469 235.949219 537.808594 239.386719 C 538.757812 242.828125 539.597656 246.292969 540.324219 249.785156 C 541.050781 253.28125 541.660156 256.792969 542.15625 260.328125 C 542.65625 263.859375 543.039062 267.40625 543.304688 270.964844 C 543.570312 274.519531 543.722656 278.085938 543.757812 281.652344 C 543.789062 285.21875 543.710938 288.785156 543.511719 292.347656 C 543.316406 295.910156 543.003906 299.460938 542.574219 303.003906 C 542.144531 306.546875 541.601562 310.070312 540.945312 313.578125 C 540.289062 317.085938 539.515625 320.566406 538.632812 324.023438 C 537.746094 327.480469 536.753906 330.90625 535.644531 334.296875 C 534.539062 337.6875 533.320312 341.042969 531.996094 344.355469 C 530.671875 347.667969 529.238281 350.933594 527.703125 354.152344 C 526.164062 357.371094 524.523438 360.539062 522.78125 363.652344 L 379.253906 283.253906 Z M 379.253906 118.746094 " fill-opacity="1" fill-rule="nonzero"/><path fill="rgb(0%, 59.609985%, 73.728943%)" d="M 526.617188 356.378906 C 525.539062 358.554688 524.410156 360.703125 523.238281 362.832031 C 522.0625 364.957031 520.839844 367.054688 519.574219 369.128906 C 518.304688 371.199219 516.992188 373.242188 515.632812 375.253906 C 514.273438 377.269531 512.871094 379.25 511.425781 381.203125 C 509.980469 383.15625 508.492188 385.074219 506.960938 386.960938 C 505.429688 388.84375 503.855469 390.695312 502.242188 392.511719 C 500.628906 394.328125 498.976562 396.105469 497.285156 397.847656 C 495.59375 399.59375 493.863281 401.296875 492.097656 402.960938 C 490.328125 404.628906 488.523438 406.253906 486.6875 407.839844 C 484.847656 409.425781 482.972656 410.972656 481.066406 412.476562 C 479.15625 413.980469 477.214844 415.4375 475.242188 416.855469 C 473.269531 418.273438 471.269531 419.648438 469.234375 420.976562 C 467.199219 422.304688 465.140625 423.585938 463.046875 424.824219 C 460.957031 426.0625 458.839844 427.25 456.699219 428.394531 C 454.554688 429.539062 452.386719 430.632812 450.195312 431.679688 C 448.003906 432.730469 445.792969 433.726562 443.554688 434.675781 C 441.320312 435.625 439.0625 436.527344 436.789062 437.375 C 434.511719 438.222656 432.21875 439.023438 429.910156 439.769531 C 427.597656 440.519531 425.273438 441.214844 422.929688 441.859375 C 420.585938 442.503906 418.234375 443.097656 415.863281 443.636719 C 413.496094 444.179688 411.117188 444.667969 408.726562 445.101562 C 406.339844 445.539062 403.941406 445.917969 401.535156 446.25 C 399.125 446.578125 396.714844 446.851562 394.296875 447.074219 C 391.875 447.296875 389.453125 447.464844 387.027344 447.582031 C 384.601562 447.695312 382.171875 447.757812 379.746094 447.761719 C 377.316406 447.769531 374.886719 447.722656 372.460938 447.625 C 370.035156 447.523438 367.609375 447.371094 365.191406 447.160156 C 362.769531 446.953125 360.355469 446.691406 357.945312 446.378906 C 355.539062 446.0625 353.136719 445.695312 350.746094 445.273438 C 348.355469 444.855469 345.972656 444.378906 343.601562 443.855469 C 341.230469 443.328125 338.871094 442.75 336.523438 442.117188 C 334.179688 441.488281 331.847656 440.804688 329.535156 440.070312 C 327.21875 439.335938 324.921875 438.550781 322.640625 437.714844 C 320.359375 436.878906 318.097656 435.992188 315.855469 435.058594 C 313.617188 434.121094 311.394531 433.136719 309.199219 432.101562 C 307 431.066406 304.828125 429.984375 302.675781 428.855469 C 300.527344 427.722656 298.402344 426.546875 296.304688 425.320312 C 294.207031 424.097656 292.136719 422.824219 290.097656 421.507812 C 288.054688 420.191406 286.042969 418.832031 284.0625 417.425781 C 282.082031 416.019531 280.132812 414.570312 278.214844 413.078125 C 276.300781 411.589844 274.417969 410.054688 272.566406 408.480469 C 270.71875 406.902344 268.90625 405.289062 267.128906 403.632812 C 265.351562 401.976562 263.609375 400.28125 261.910156 398.550781 C 260.207031 396.816406 258.542969 395.046875 256.917969 393.242188 C 255.296875 391.4375 253.710938 389.59375 252.167969 387.71875 C 250.625 385.839844 249.125 383.933594 247.667969 381.988281 C 246.210938 380.046875 244.796875 378.070312 243.425781 376.066406 C 242.054688 374.0625 240.730469 372.027344 239.449219 369.960938 C 238.171875 367.898438 236.9375 365.804688 235.75 363.6875 C 234.5625 361.566406 233.421875 359.425781 232.328125 357.253906 C 231.234375 355.085938 230.191406 352.894531 229.195312 350.675781 C 228.199219 348.460938 227.253906 346.226562 226.359375 343.96875 C 225.460938 341.710938 224.617188 339.433594 223.820312 337.136719 C 223.023438 334.84375 222.28125 332.53125 221.585938 330.203125 C 220.894531 327.875 220.253906 325.535156 219.664062 323.175781 C 219.074219 320.820312 218.535156 318.453125 218.050781 316.074219 C 217.566406 313.691406 217.136719 311.300781 216.757812 308.902344 C 216.378906 306.503906 216.054688 304.097656 215.78125 301.683594 C 215.507812 299.269531 215.289062 296.851562 215.125 294.429688 C 214.960938 292.003906 214.847656 289.578125 214.792969 287.152344 C 214.734375 284.722656 214.730469 282.292969 214.78125 279.867188 C 214.832031 277.4375 214.933594 275.011719 215.09375 272.585938 C 215.25 270.164062 215.460938 267.742188 215.726562 265.328125 C 215.988281 262.914062 216.308594 260.507812 216.679688 258.105469 C 217.050781 255.707031 217.476562 253.316406 217.953125 250.933594 C 218.429688 248.550781 218.960938 246.179688 219.542969 243.820312 C 220.125 241.464844 220.757812 239.121094 221.445312 236.789062 C 222.132812 234.457031 222.871094 232.144531 223.660156 229.847656 C 224.445312 227.550781 225.285156 225.269531 226.175781 223.011719 C 227.066406 220.75 228.003906 218.511719 228.992188 216.289062 C 229.984375 214.070312 231.019531 211.875 232.105469 209.703125 C 233.191406 207.53125 234.324219 205.382812 235.507812 203.261719 C 236.6875 201.136719 237.917969 199.042969 239.191406 196.972656 C 240.464844 194.90625 241.785156 192.867188 243.148438 190.855469 C 244.511719 188.847656 245.921875 186.867188 247.371094 184.921875 C 248.824219 182.972656 250.316406 181.058594 251.855469 179.175781 C 253.390625 177.296875 254.96875 175.449219 256.585938 173.636719 C 258.207031 171.828125 259.863281 170.050781 261.5625 168.316406 C 263.257812 166.578125 264.992188 164.878906 266.765625 163.214844 C 268.539062 161.554688 270.34375 159.933594 272.191406 158.351562 C 274.035156 156.773438 275.910156 155.234375 277.824219 153.734375 C 279.738281 152.238281 281.679688 150.78125 283.65625 149.371094 C 285.632812 147.960938 287.640625 146.59375 289.679688 145.269531 C 291.714844 143.949219 293.78125 142.671875 295.875 141.4375 C 297.96875 140.207031 300.089844 139.023438 302.234375 137.886719 C 304.382812 136.75 306.550781 135.660156 308.746094 134.621094 C 310.941406 133.578125 313.15625 132.585938 315.394531 131.644531 C 317.632812 130.699219 319.890625 129.808594 322.167969 128.964844 C 324.449219 128.121094 326.742188 127.332031 329.054688 126.589844 C 331.367188 125.847656 333.695312 125.160156 336.039062 124.519531 C 338.382812 123.882812 340.742188 123.296875 343.109375 122.761719 C 345.480469 122.230469 347.859375 121.75 350.25 121.320312 C 352.640625 120.890625 355.039062 120.515625 357.449219 120.195312 C 359.855469 119.875 362.269531 119.605469 364.6875 119.390625 C 367.105469 119.175781 369.527344 119.015625 371.957031 118.90625 C 374.382812 118.800781 376.808594 118.746094 379.238281 118.746094 L 379.253906 283.253906 Z M 526.617188 356.378906 " fill-opacity="1" fill-rule="nonzero"/><path fill="rgb(0%, 42.349243%, 63.919067%)" d="M 379.253906 118.746094 C 379.25 118.746094 379.253906 118.746094 379.269531 118.746094 L 379.253906 283.253906 Z M 379.253906 118.746094 " fill-opacity="1" fill-rule="nonzero"/></svg>